<?xml version="1.0" encoding="utf-8"?>
<!-- Generator: Adobe Illustrator 27.5.0, SVG Export Plug-In . SVG Version: 6.00 Build 0)  -->
<svg version="1.1" id="Layer_1" xmlns="http://www.w3.org/2000/svg" xmlns:xlink="http://www.w3.org/1999/xlink" x="0px" y="0px"
	 viewBox="0 0 1200 1000" style="enable-background:new 0 0 1200 1000;" xml:space="preserve">
<rect style="fill:#FFFFFF;" width="1200" height="1000"/>
<g>
	<path style="fill:#CCCCCC;" d="M559.436,893.888c0,3.891-89.342,7.045-199.55,7.045s-199.55-3.154-199.55-7.045
		c0-3.891,89.342-7.046,199.55-7.046S559.436,889.996,559.436,893.888z"/>
	<g>
		<path style="fill:#E07F4F;" d="M436.832,371.597c3.588-9.539,18.312-21.353,25.877-28.246
			c15.118,10.903,35.208,18.969,47.881,32.862l-1.596,66.586c-3.824,1.673-21.769-9.07-27.793-12.213
			c-12.147-6.337-24.785-17.643-32.901-28.753C442.442,393.816,433.5,380.455,436.832,371.597z"/>
		<g>
			<path style="fill:#DEF0F9;" d="M373.956,324.784c3.431,28.016,22.302,52.27,44.741,70.199
				c5.036,4.023,10.251,7.729,15.514,11.086c0.49,0.314,0.98,0.625,1.471,0.931c6.925,4.329,11.521,9.704,18.543,7.226
				c6.083-2.145,13.259-9.178,17.91-13.435c1.732-1.586,3.613-3.447,5.518-5.518c7.784-8.448,15.988-20.325,16.307-30.772
				c0.055-1.768,0.711-3.043,0.595-4.877c-2.219-2.765-4.65-5.711-7.231-8.746c-15.825-18.634-37.232-40.694-49.502-45.953
				L373.956,324.784z"/>
			<path style="opacity:0.5;fill:#FFFFFF;" d="M434.212,406.069c0.49,0.314,0.98,0.625,1.471,0.931
				c6.925,4.329,11.521,9.704,18.543,7.226c6.083-2.145,13.259-9.178,17.91-13.435c1.732-1.586,3.613-3.447,5.518-5.518
				c7.784-8.448,15.988-20.325,16.307-30.772c0.055-1.768,0.711-3.043,0.595-4.877c-2.219-2.765-4.65-5.711-7.231-8.746
				c-3.31,13.719-17.538,34.82-25.386,41.999c-0.898,0.818-1.886,1.743-2.943,2.718c-4.434,4.067-10.057,8.983-14.966,10.72
				C440.035,407.719,435.787,406.524,434.212,406.069z"/>
			<path style="opacity:0.7;fill:#C7DDE5;" d="M418.698,394.983c5.036,4.023,10.251,7.729,15.514,11.086
				c0.49,0.314,0.98,0.625,1.471,0.931c6.925,4.329,11.521,9.704,18.543,7.226c6.083-2.145,13.259-9.178,17.91-13.435
				c1.732-1.586,3.613-3.447,5.518-5.518c-6.144,1.567-12.744,1.812-18.659,0.322c-2.784-0.699-5.414-1.784-7.774-3.293
				c-4.783-3.059-8.963-8.39-12.956-12.499c-4.408-4.538-13.024-12.298-17.516-12.493L418.698,394.983z"/>
		</g>
		<path style="fill:#FFA471;" d="M465.636,303.479c0.438,1.782,0.807,3.594,1.126,5.406c1.094,6.182,1.605,12.367,2.305,17.428
			c1.95,14.118,2.88,27.603,3.431,41.979c1.077,28.03,7.625,49.125,30.277,69.428c8.129,7.286,16.803,6.752,22.233-1.349
			c0.345-0.512,0.694-1.112,1.044-1.776c3.784-7.151,7.815-22.029,7.815-22.029c6.174-17.656-11.433-46.377-19.028-63.389
			c-6.609-14.812-19.025-32.76-27.498-46.812L465.636,303.479z"/>
		<g>
			<g>
				<path style="fill:#7F7F82;" d="M349.792,302.796c-0.746,0.943-1.325,3.609-2.592,2.696c-0.768-0.553-0.906-2.461-1.094-3.688
					L349.792,302.796z"/>
				<path style="fill:#7F7F82;" d="M355.213,304.254c-0.746,0.942-1.326,3.609-2.593,2.696c-0.768-0.553-0.907-2.461-1.094-3.688
					L355.213,304.254z"/>
				<path style="fill:#7F7F82;" d="M360.633,305.712c-0.747,0.942-1.325,3.609-2.593,2.695c-0.768-0.553-0.907-2.46-1.094-3.688
					L360.633,305.712z"/>
				<path style="fill:#7F7F82;" d="M366.053,307.17c-0.746,0.943-1.326,3.609-2.592,2.696c-0.769-0.554-0.908-2.461-1.095-3.688
					L366.053,307.17z"/>
				<path style="fill:#7F7F82;" d="M371.473,308.628c-0.746,0.942-1.325,3.609-2.592,2.696c-0.768-0.553-0.907-2.46-1.094-3.688
					L371.473,308.628z"/>
			</g>
			<g>
				<path style="fill:#7F7F82;" d="M373.289,287.184c0.746-0.943,1.326-3.609,2.593-2.696c0.768,0.553,0.908,2.461,1.094,3.688
					L373.289,287.184z"/>
				<path style="fill:#7F7F82;" d="M367.869,285.725c0.746-0.943,1.325-3.609,2.592-2.696c0.768,0.553,0.907,2.461,1.095,3.688
					L367.869,285.725z"/>
				<path style="fill:#7F7F82;" d="M362.448,284.267c0.746-0.943,1.326-3.61,2.593-2.696c0.768,0.553,0.908,2.461,1.094,3.687
					L362.448,284.267z"/>
				<path style="fill:#7F7F82;" d="M357.028,282.809c0.746-0.943,1.325-3.609,2.593-2.696c0.768,0.553,0.907,2.461,1.094,3.688
					L357.028,282.809z"/>
				<path style="fill:#7F7F82;" d="M351.608,281.351c0.746-0.942,1.326-3.609,2.593-2.696c0.768,0.553,0.908,2.461,1.094,3.688
					L351.608,281.351z"/>
			</g>
			<g>
				<path style="fill:#706F74;" d="M382.637,299.447c1.545-5.744-1.859-11.654-7.603-13.199l-81.137-21.828
					c-5.744-1.545-11.654,1.858-13.199,7.603l-0.28,1.042c-1.546,5.744,1.858,11.654,7.602,13.199l81.136,21.828
					c5.744,1.546,11.654-1.859,13.199-7.602L382.637,299.447z"/>
				<path style="fill:#7F7F82;" d="M378.87,298.591c1.112-4.133-1.337-8.386-5.471-9.497l-58.383-15.706
					c-4.133-1.113-8.385,1.337-9.497,5.47l-0.202,0.75c-1.112,4.133,1.338,8.385,5.471,9.497l58.382,15.706
					c4.134,1.112,8.386-1.337,9.498-5.471L378.87,298.591z"/>
			</g>
			<g>
				
					<rect x="316.929" y="281.386" transform="matrix(0.2598 -0.9657 0.9657 0.2598 -32.0497 536.4055)" style="fill:#706F74;" width="33.897" height="15.447"/>
				<path style="fill:#8F8E91;" d="M334.145,274.074c0.585-2.174-0.703-4.41-2.877-4.995l0,0c-2.174-0.585-4.41,0.703-4.995,2.877
					l-7.58,28.176c-0.585,2.174,0.704,4.41,2.877,4.995l0,0c2.174,0.585,4.41-0.703,4.996-2.877L334.145,274.074z"/>
				<path style="fill:#8F8E91;" d="M350.719,278.533c0.585-2.174-0.703-4.411-2.878-4.996l0,0c-2.173-0.584-4.41,0.704-4.995,2.878
					l-7.58,28.176c-0.585,2.174,0.704,4.41,2.877,4.995l0,0c2.174,0.585,4.41-0.704,4.995-2.877L350.719,278.533z"/>
			</g>
			<path style="fill:#706F74;" d="M291.084,287.93l6.019-22.377c-5.41-0.931-24.997-6.444-33.264-10.695
				c-0.529-0.271-1.01-0.539-1.439-0.796c-0.903-0.548-1.573-1.065-1.947-1.539c-5.009-6.353,5.691-23.491,4.812-31.397
				c-0.167-1.502-0.752-2.67-1.944-3.369c-1.292-0.756-2.823-0.79-4.463-0.334c-0.76,0.211-1.544,0.524-2.337,0.92
				c-5.578,2.779-11.665,9.543-13.791,12.085c-6.492,7.771-9.466,18.722-7.42,28.683c2.047,9.975,9.192,16.667,18.695,19.692
				C262.526,281.516,279.727,285.54,291.084,287.93z"/>
			<g>
				<path style="fill:#706F74;" d="M313.266,293.056l-54.663-14.705c-5.744-1.545-9.149-7.455-7.603-13.199l0.281-1.042
					c1.545-5.745,7.455-9.149,13.199-7.603l54.663,14.705L313.266,293.056z"/>
				<path style="fill:#7F7F82;" d="M314.09,289.993l-53.852-14.488c-4.133-1.112-6.582-5.364-5.471-9.497l0.202-0.75
					c1.112-4.133,5.364-6.583,9.497-5.471l53.853,14.488L314.09,289.993z"/>
			</g>
			<path style="opacity:0.3;fill:#5D5D5D;" d="M295.719,270.704l4.057-5.135c-5.41-0.931-27.669-6.459-35.937-10.71
				c-0.529-0.271-1.01-0.539-1.439-0.796c0.307-0.515,0.551-1.08,0.714-1.689c0.739-2.745-0.353-5.549-2.528-7.118l5.777-21.475
				c0.065-0.751,0.141-1.502,0.232-2.251l-1.331-0.403c-0.167-1.502-0.752-2.67-1.944-3.369c-1.292-0.756-2.823-0.79-4.463-0.334
				c-0.76,0.211-1.544,0.524-2.337,0.92c-4.314,4.498-7.752,9.829-10.243,15.504c-2.639,6.012-6.614,14.096-3.815,20.759
				c1.512,3.59,4.447,7.626,11.492,9.521C259.842,265.711,294.699,270.366,295.719,270.704z"/>
			<path style="fill:#8F8E91;" d="M310.212,231.752l-9.622,37.401c-2.561-2.315-7.062-3.955-10.155-6.063
				c-1.547-1.054-5.38-4.658-6.54-6.203c-1.164-1.551,5.414-23.426,9.269-29.499L310.212,231.752z"/>
			<path style="fill:#605F63;" d="M262.4,254.063c0.307-0.515,0.551-1.08,0.714-1.689c0.739-2.745-0.353-5.549-2.528-7.118
				l6.355-23.622l-0.346-0.104l-1.331-0.403c-0.167-1.502-0.752-2.67-1.944-3.369c-1.292-0.756-2.823-0.79-4.463-0.334
				c-3.513,10.385-10.343,30.587-10.482,31.104c-1.207,4.489,1.453,9.111,5.944,10.319c3.793,1.021,7.676-0.719,9.519-3.988
				C263.31,254.587,262.829,254.32,262.4,254.063z"/>
			<path style="fill:#EA521C;" d="M536.107,308.708c2.431-9.039-14.417-17.43-27.788-20.583
				c-2.701-0.539-192.496-54.863-206.198-58.549c-0.001-0.001-0.001-0.001-0.004-0.001c-0.067-0.018-0.132-0.033-0.199-0.047
				l-9.241,34.353l-8.702-2.341c-0.443,1.578-1.549,4.064-1.549,4.064s-5.988,19.813-1.895,28.556
				c1.211,2.59,4.426,4.985,8.506,6.922c10.664,5.062,27.253,6.994,29.55,1.094c3.599-9.252,8.519-29.218,8.519-29.218l23.068,5.946
				c0,0-5.981,11.499-2.006,13.235c5.277,2.304,15.302-8.765,22.329-9.507c29.232-3.091,98.11,19.465,131.691,28.281
				c2.246,0.479,5.723,1.231,9.613,1.861C521.732,314.383,534.36,315.203,536.107,308.708z M525.79,304.857
				c-0.623,2.316-4.954,3.164-9.673,1.894c-4.72-1.27-8.041-4.176-7.418-6.492c0.624-2.318,4.955-3.166,9.674-1.896
				C523.093,299.633,526.414,302.539,525.79,304.857z"/>
			<path style="opacity:0.5;fill:#EA521C;" d="M536.107,308.708c2.431-9.039-14.417-17.43-27.788-20.583
				c-2.701-0.539-192.496-54.863-206.198-58.549c-0.001-0.001-0.001-0.001-0.004-0.001c-0.067-0.018-0.132-0.033-0.199-0.047
				l-9.241,34.353l-8.702-2.341c-0.443,1.578-1.549,4.064-1.549,4.064s-5.988,19.813-1.895,28.556
				c1.211,2.59,4.426,4.985,8.506,6.922c0.053-0.792,0.106-1.569,0.175-2.31c0.083-0.928,0.191-1.802,0.352-2.58
				c1.112-5.432,2.365-9.781,4.786-14.708c5.117-10.418,14.254-14.998,24.749-18.82c24.712-9.003,48.529-5.888,73.96-1.271
				c28.677,5.209,58.52,15.121,83.947,29.402c9.88,5.553,20.439,11.966,30.661,19.058c1.386,0.962,2.763,1.935,4.134,2.92
				C521.732,314.383,534.36,315.203,536.107,308.708z M508.699,300.259c0.624-2.318,4.955-3.166,9.674-1.896
				c4.719,1.27,8.041,4.176,7.417,6.494c-0.623,2.316-4.954,3.164-9.673,1.894C511.397,305.482,508.076,302.575,508.699,300.259z"/>
			<path style="fill:#7F7F82;" d="M263.115,252.373c0.739-2.745-0.353-5.549-2.528-7.118l6.355-23.622l-0.346-0.104l-1.331-0.403
				l-5.106-1.54c0,0-9.741,28.78-9.889,29.331c-0.954,3.547,1.147,7.196,4.695,8.15c2.937,0.79,5.949-0.517,7.435-3.005
				C262.708,253.548,262.951,252.982,263.115,252.373z"/>
			<path style="fill:#FFBB4D;" d="M538.178,309.265c0.908-3.375,0.261-8.59-7.982-14.262c-4.927-3.389-11.941-6.46-19.243-8.424
				c-0.717-0.193-1.437-0.376-2.141-0.543l-0.057-0.011c-0.085-0.021-0.264-0.069-0.527-0.139
				c-6.109-1.644-53.851-15.251-100.018-28.409c-48.548-13.838-98.749-28.147-105.532-29.972c-0.106-0.029-0.208-0.052-0.31-0.075
				l-1.993-0.424l-9.213,34.247l-8.681-2.335l-0.572,2.045c-0.328,1.171-1.152,3.118-1.443,3.769l-0.055,0.123l-0.039,0.129
				c-0.254,0.843-6.175,20.707-1.784,30.088c3.078,6.578,14.697,10.15,18.185,11.088c5.095,1.371,10.133,1.993,14.185,1.755
				c6.513-0.385,8.829-2.91,9.627-4.959c2.956-7.594,6.704-21.971,8.077-27.379l18.452,4.757c-1.37,3.102-3.195,8.176-2.112,11.235
				c0.417,1.183,1.216,2.063,2.308,2.539c0.259,0.112,0.528,0.207,0.806,0.281c3.81,1.025,8.26-1.83,12.97-4.855
				c3.436-2.207,6.988-4.488,9.636-4.767c18.046-1.908,52.216,6.503,76.348,12.995c10.474,2.818,20.94,5.8,30.176,8.431
				c7.848,2.235,15.26,4.347,21.547,6.039c0.974,0.262,1.927,0.516,2.849,0.757l0.098,0.024l0.279,0.06
				c4.229,0.902,12.102,2.582,19.356,2.921C531.202,316.452,536.854,314.19,538.178,309.265z M534.036,308.151
				c-0.957,3.557-8.215,3.755-12.459,3.558c-4.749-0.222-9.851-1.064-13.909-1.854c-1.841-0.357-3.467-0.706-4.748-0.979
				l-0.234-0.05c-0.901-0.236-1.829-0.483-2.776-0.738c-6.256-1.684-13.654-3.791-21.484-6.022
				c-9.251-2.635-19.736-5.622-30.238-8.448c-24.463-6.581-59.155-15.101-77.915-13.118c-3.659,0.387-7.646,2.946-11.504,5.424
				c-3.542,2.275-7.559,4.853-9.535,4.322c-0.058-0.016-0.109-0.032-0.162-0.052c-0.089-0.207-0.485-1.468,0.901-5.397
				c0.912-2.589,2.094-4.877,2.107-4.901l1.242-2.394l-27.779-7.163l-0.518,2.107c-0.049,0.198-4.928,19.938-8.436,28.954
				c-0.961,2.467-8.703,3.306-18.7,0.617c-3.239-0.872-6.209-1.997-8.676-3.243c-3.424-1.725-5.878-3.685-6.739-5.523
				c-3.049-6.512,0.352-21.499,1.967-26.902c0.144-0.328,0.532-1.225,0.912-2.216l8.837,2.377l9.241-34.349
				c11.439,3.171,58.241,16.512,103.601,29.442c48.308,13.769,93.94,26.774,100.081,28.425c0.476,0.128,0.645,0.169,0.739,0.19
				c0.654,0.156,1.319,0.323,1.984,0.503c6.851,1.843,13.385,4.692,17.925,7.817C531.173,300.885,535.029,304.457,534.036,308.151z"
				/>
			<g style="opacity:0.6;">
				<path style="fill:#FFBB4D;" d="M312.253,298.473c-4.765,3.875-13.658,0.428-18.709-1.478c-6.462-2.439-9.526-6.587-9-14.072
					c0.191-2.722,1.427-10.626,3.294-12.772c-0.424,3.764-0.59,7.643-0.262,11.043c0.686,7.108,3.72,9.376,10.859,10.919
					c5.485,1.186,12.215,2.482,15.449-2.964c3.169-5.336,10.274-32.59,12.956-38.293
					C326.062,253.024,319.22,292.806,312.253,298.473z"/>
			</g>
		</g>
		<path style="fill:#DEF0F9;" d="M266.258,324.875c0.055,0.165,0.113,0.331,0.165,0.496c2.707,8.112,3.737,16.056,4.852,23.99
			c1.95,13.832,4.161,27.63,15.974,42.222c1.512,1.867,3.018,3.767,4.513,5.697c1.135,1.462,2.258,2.941,3.373,4.436
			c2.062,2.773,4.086,5.604,6.044,8.49c8.602,12.659,15.977,26.375,19.956,40.768c0.603,2.178,1.126,4.37,1.567,6.576
			c2.814,14.156-5.282,54.021-4.852,60.068c3.863,1.836,8.038,3.084,12.154,4.119c5.769,1.448,11.637,2.465,17.491,3.503
			c5.775,1.027,11.565,1.98,17.378,2.778c11.973,1.644,24.081,2.715,36.175,2.374c11.783-0.331,23.657-1.958,34.762-6.039
			c2.654-0.977,5.262-2.087,7.798-3.343c-2.434-8.404-17.56-109.854-5.661-128.876c20.088-32.11,22.968-63.436,16.356-74.178
			c-1.869-3.035-7.047-8.52-16.323-13.644c-3.663-2.024-7.526-4.07-11.298-6.033c-11.978-6.226-23.021-11.596-23.679-12.601
			l-54.25-11.984c-4.362,9.572-26.427,21.624-35.516,25.259c-0.501,0.201-1.027,0.421-1.578,0.666
			c-2.5,1.104-5.499,2.633-8.773,4.409c-3.646,1.98-7.633,4.266-11.651,6.603c-0.003,0.003-0.005,0.003-0.005,0.003
			c-8.517,4.959-17.161,10.164-22.974,13.223C267.547,324.228,266.878,324.569,266.258,324.875z"/>
		<g>
			<path style="fill:#E07F4F;" d="M384.021,258.016l-0.737,0.4c4.002-0.516,9.076-2.31,12.962-0.687
				C392.188,254.495,387.813,255.634,384.021,258.016z"/>
			<path style="fill:#FFA471;" d="M396.287,257.744c-0.013-0.006-0.028-0.009-0.041-0.015c0.011,0.009,0.023,0.016,0.034,0.025
				C396.396,257.845,396.398,257.842,396.287,257.744z"/>
		</g>
		<g>
			<g>
				<path style="fill:#FFA471;" d="M406.762,287.95c-3.392,8.583-8.171,23.412-14.569,35.742c-0.792-0.722-1.568-1.425-2.315-2.095
					c-3.376-3.031-6.113-5.375-6.71-5.628c-0.695,0.293-5.427,3.641-10.832,7.638c-0.293,0.217-0.589,0.437-0.885,0.657
					c-0.342-0.385-0.686-0.776-1.034-1.175c-6.181-7.069-13.163-15.988-19.098-23.646c-5.275-6.805-9.725-12.615-12.056-15.244
					c0.868-1.683,2.06-4.317,3.346-7.517c0.828-2.057,1.698-4.344,2.542-6.762c2.727-7.799,5.242-16.938,5.519-23.949
					c0.171-4.306-0.5-7.81-2.483-9.706l6.39,1.419l6.298,1.4l40.406,8.979c-3.006,6.518-5.421,21.369-2.016,31.211
					C400.662,283.318,403.042,286.52,406.762,287.95z"/>
				<path style="fill:#E07F4F;" d="M396.383,299.803c-1.476,5.465-2.087,17.456-6.504,21.795c-3.376-3.031-6.113-5.375-6.71-5.628
					c-0.695,0.293-5.427,3.641-10.832,7.638c-0.66-0.152-1.3-0.326-1.919-0.518c-6.181-7.069-13.163-15.988-19.098-23.646
					c-3.264-7.581-5.885-15.624-8.71-22.761c0.828-2.057,1.698-4.344,2.542-6.762c2.727-7.799,5.242-16.938,5.519-23.949
					l3.907-8.287l6.298,1.4c-0.024,13.657-2.402,28.557,1.634,41.894C366.854,295.337,380.001,315.923,396.383,299.803z"/>
			</g>
			<g>
				<path style="fill:#21597C;" d="M347.295,172.097c-1.599,2.884-42.023,31.057-44.581,49.082
					c-1.49,10.495,13.27,6.144,18.412,4.528c11.549-3.63,21.845-10.519,32.723-15.459L347.295,172.097z"/>
				<g>
					<path style="fill:#E07F4F;" d="M408.007,206.446c3.376-8.801,9.269-10.991,12.348-6.63c2.505,3.549,2.439,9.273,2.364,13.337
						c-0.072,3.874-3.259,11.794-7.18,11.733c-3.073-0.048-4.589-3.82-6.103-6.946L408.007,206.446z"/>
					<path style="fill:#C15F33;" d="M409.08,209.184c0.989-6.469,11.666-13.316,11.348-2.388l-0.225,0.04
						c-0.321-9.056-11.96-1.569-7.999,6.913c5.199-0.771,4.771,5.95,1.081,4.696C410.648,217.551,408.604,212.3,409.08,209.184z"/>
				</g>
				<path style="fill:#FFA471;" d="M411.44,255.052c-0.91,3.816-1.861,6.371-2.707,7.145c-5.868,5.374-15.96,9.398-23.437,9.217
					c-10.083-0.252-19.75-4.016-28.477-9.207c-16.952-10.1-14.307-30.352-17.211-46.625c-1.66-9.362-2.886-13.201-5.066-22.237
					c-0.003-0.012-0.007-0.024-0.009-0.038c-0.289-1.2-0.773-2.976-1.288-4.984c-1.145-4.432-2.462-9.99-2.255-12.853
					c0.109-1.473,8.897-10.931,11.431-13.078c5.617-4.737,11.978-9.237,15.86-11.02c8.14-3.728,17.308-7.26,26.041-8.452
					c7.503-1.019,23.171,15.688,23.171,15.688C420.799,176.406,416.422,234.386,411.44,255.052z"/>
				<path style="fill:#E07F4F;" d="M364.806,184.719c-9.919,0.748-9.554,17.323-9.762,20.898c0,0,16.28-4.518,17.957-1.37
					C372.831,203.375,374.277,184.005,364.806,184.719z"/>
				<path style="fill:#FFFFFF;" d="M370.389,200.842c-1.306-1.357-2.87-1.862-4.671-2.083c-1.255-0.153-2.639-0.434-3.751,0.03
					c-9.079,3.788-9.875,11.925,2.526,11.133c3.12-0.199,7.299-1.367,8.059-4.998C372.924,203.146,371.497,201.994,370.389,200.842z
					"/>
				<g>
					<path style="fill:#2D140D;" d="M365.924,204.186c-0.246,3.363-2.112,5.967-4.169,5.817c-2.057-0.15-3.525-2.998-3.279-6.361
						c0.246-3.363,2.111-5.967,4.168-5.816C364.702,197.976,366.169,200.823,365.924,204.186z"/>
					<path style="fill:#FFFFFF;" d="M362.026,204.285c-0.059,0.803-0.557,1.421-1.113,1.381c-0.556-0.041-0.959-0.725-0.9-1.528
						c0.059-0.803,0.557-1.421,1.112-1.381C361.682,202.799,362.085,203.482,362.026,204.285z"/>
				</g>
				<path style="fill:#562818;" d="M363.307,182.173c-0.103,1.009-0.633,1.852-0.687,2.762c0.004-0.072-0.517-2.124-0.691-2.871
					c-1.831,1.113-7.333,4.482-7.522,4.649c-1.215,1.068-0.872,6.411-0.872,6.411c5.594-3.739,11.353-5.819,18.125-5.213
					c0.488-2.565,1.358-5.395,2.107-7.908C370.463,179.752,366.182,180.59,363.307,182.173z"/>
				<path style="fill:#562818;" d="M402.855,177.387c0.355,0.95,1.081,1.632,1.364,2.498c-0.022-0.068-0.038-2.185-0.059-2.952
					c2.054,0.614,9.59,2.792,9.805,2.928c1.217,0.768,1.119,5.646,1.119,5.646c-6.36-2.2-12.457-2.754-18.855-0.451
					c-1.122-2.357-2.68-4.875-4.041-7.116C395.318,176.858,399.672,176.584,402.855,177.387z"/>
				<path style="fill:#E07F4F;" d="M373.051,204.96l-1.291-1.713c-2.237,8.815-11.523,6.089-16.098,4.313
					c2.674,3.913,9.212,4.35,12.093,3.766c1.008-0.204,3.637-1.469,4.449-2.331C373.313,207.819,373.515,206.916,373.051,204.96z"/>
				<path style="fill:#E07F4F;" d="M411.44,255.052c-0.91,3.816-1.861,6.371-2.707,7.145c-5.868,5.374-15.96,9.398-23.437,9.217
					c-10.083-0.252-19.75-4.016-28.477-9.207c-16.952-10.1-14.307-30.352-17.211-46.625c-1.66-9.362-2.886-13.201-5.066-22.237
					c-0.003-0.012-0.007-0.024-0.009-0.038c-0.289-1.2-0.773-2.976-1.288-4.984c-1.145-4.432-2.462-9.99-2.255-12.853
					c0.109-1.473,8.897-10.931,11.431-13.078l21.059-0.765c-7.044,13.666-12.092,30.401-12.485,46.073
					c-0.223,8.565,10.199,8.448,12.898,16.682c1.817,5.547-6.743,26.124-2.556,30.12c2.588,2.484,6.2,4.727,9.267,6.128
					c3.853,1.764,4.207,1.046,7.725-0.881c6.538-3.602,12.746-1.631,17.263,3.641c4.208-2.073,8.879-3.518,12.906-6.137
					C409.507,256.597,410.496,255.855,411.44,255.052z"/>
				<path style="fill:#2D140D;" d="M373.276,205.939c-0.063,0.017-0.127,0.035-0.19,0.053c-3.881-9.003-13.275-7.462-18.042-0.374
					C357.211,192.572,372.35,193.186,373.276,205.939z"/>
				<path style="fill:#E07F4F;" d="M403.061,185.393c9.941,0.296,10.332,16.87,10.702,20.431c0,0-16.469-3.771-18.001-0.551
					C395.892,204.395,393.567,185.11,403.061,185.393z"/>
				<path style="fill:#FFFFFF;" d="M398.216,201.753c1.243-1.415,2.781-1.992,4.572-2.294c1.246-0.211,2.615-0.554,3.748-0.141
					c9.241,3.371,10.408,11.463-2.017,11.237c-3.125-0.057-7.354-1.034-8.278-4.627
					C395.789,204.169,397.162,202.954,398.216,201.753z"/>
				<g>
					<path style="fill:#2D140D;" d="M399.667,204.673c-0.022,3.372,1.633,6.116,3.695,6.129c2.062,0.013,3.75-2.71,3.772-6.082
						c0.021-3.372-1.633-6.115-3.695-6.128C401.376,198.579,399.688,201.301,399.667,204.673z"/>
					<path style="fill:#FFFFFF;" d="M404.097,204.591c-0.004,0.805,0.443,1.461,1,1.465c0.557,0.003,1.012-0.646,1.017-1.452
						c0.006-0.805-0.442-1.461-0.998-1.465C404.558,203.136,404.103,203.786,404.097,204.591z"/>
				</g>
				<path style="fill:#E07F4F;" d="M395.746,205.987l1.212-1.77c2.636,8.705,11.788,5.558,16.277,3.576
					c-2.493,4.031-9.005,4.765-11.91,4.313c-1.016-0.158-3.7-1.302-4.551-2.126C395.614,208.855,395.371,207.962,395.746,205.987z"
					/>
				<path style="fill:#2D140D;" d="M395.564,206.975c0.064,0.014,0.129,0.029,0.192,0.044c3.468-9.17,12.922-8.059,18.007-1.195
					C411.005,192.892,395.91,194.193,395.564,206.975z"/>
				<path style="fill:#562818;" d="M413.283,173.047c-0.614-2.618-1.534-5.16-3.989-6.388c-7.982-3.992-22.045-15.634-31.051-14.95
					c-8.146,0.619-11.964,13.122-19.323,16.715c-4.041,1.972-8.028,3.623-11.806,6.123c-1.889,1.25-4.863,4.594-6.238,5.14
					l-8.875,4.935c0.938,2.528,1.186,5.748,1.787,8.463c0.66,2.982,1.567,5.935,2.524,8.758c0.964,2.843,1.449,5.831,2.261,8.664
					c0.368,1.286,0.662,2.534,1.057,3.775c0.535,1.678,0.484,2.316,2.263,2.481c1.464,0.137,4.911,0.02,6.423-0.054
					c-1.578-10.605,1.164-27.913,11.254-34.521c4.945-3.238,7.332-1.918,12.925-3.406c6.698-1.783,13.985-2.653,20.855-2.862
					c7.214-0.219,15.352-0.023,21.115,4.702C415.231,178.574,413.757,175.068,413.283,173.047z"/>
				<path style="fill:#2A6C9E;" d="M334.309,148.414c-5.507,15.07-5.226,34.089-1.761,37.58c0,0,44.295-1.689,80.683-13.38
					C403.56,106.654,342.827,125.097,334.309,148.414z M365.647,172.509c-1.157-7.2,3.768-17.049,12.865-17.611
					c4.434-0.273,9.061,0.701,12.112,4.271c1.838,2.151,3.7,5.563,4.119,9.155L365.647,172.509z"/>
				<g>
					<g>
						<path style="fill:#1D5577;" d="M369.26,182.274c0.199-0.022,0.393-0.051,0.579-0.09
							C369.662,182.213,369.467,182.243,369.26,182.274z"/>
						<path style="fill:#1D5577;" d="M394.743,168.325c-5.1,0.564-28.203,3.945-28.203,3.945c-3.108,0.567-11.719,2.069-9.801,7.181
							c1.534,4.089,9.021,3.35,12.522,2.823c-3.562,0.398-9.043-1.861-5.249-5.358C366.628,174.506,387.635,171.076,394.743,168.325
							z"/>
					</g>
				</g>
				<path style="fill:#562818;" d="M415.559,224.143c-2.016-0.811-16.55,11.333-41.461,5.785
					c-8.336-1.856-26.172-11.634-26.615-21.539l-4.92,7.046c-2.299,11.271-5.133,31.08,1.708,41.236
					c6.477,9.616,24.107,20.674,34.824,23.54c10.377,2.775,26.943-5.311,33.115-17.696
					C419.938,247.005,415.581,230.81,415.559,224.143z"/>
				<path style="fill:#FFA471;" d="M410.015,233.567c-3.488-3.027-7.175-0.156-10.25,1.992c-7.546,5.274-16.326,3.971-24.686,1.501
					c-4.078-1.205-7.906-4.738-12.183-5.028c-4.225-0.287-7.491,7.439-3.932,11.016c0,0,26.406,29.342,50.492,0.459
					C411.826,240.666,413.062,236.211,410.015,233.567z"/>
				<g>
					<path style="fill:#E07F4F;" d="M392.097,200.994c-3.291,7.651,2.082,25.945-2.551,26.624c-5.523,0.811-7.847,1.493-11.17,3.333
						c4.632,3.07,11.489,4.786,16.693,0.005C397.16,229.035,391.111,210.331,392.097,200.994z"/>
				</g>
				<path style="fill:#562818;" d="M391.419,257.535c-1.153-2.78-2.144-6.41-3.527-8.897c-1.097,0.343-2.215,0.147-3.37,0.233
					c-0.527,3.334-1.144,6.469-2.558,9.547L391.419,257.535z"/>
				<path style="fill:#E07F4F;" d="M406.658,235.782c-0.587,0.996-1.697,2.454-2.946,3.363c-0.628,0.289-1.247,0.563-1.857,0.818
					c-0.121,0.014-0.241,0.019-0.361,0.013l0.147,0.076c-13.208,5.484-22.255,3.308-35.289-1.705l0.065-0.022
					c-0.069-0.007-0.138-0.018-0.205-0.031c-0.287-0.11-0.576-0.222-0.866-0.335c-1.556-0.891-2.866-3.154-3.427-4.534
					c-2.474,1.556-2.862,3.778-3.116,6.499c1.21-2.086,2.519-2.467,4.207-1.95c3.329,2.57,19.229,19.094,29.156,9.548
					c-6.24,2.213-11.362,0.092-16.322-3.172c9.495,2.697,20.079,1.927,27.774-3.917c2.449-0.749,4.076-0.527,5.177,2.232
					C408.941,239.935,408.879,237.68,406.658,235.782z"/>
				<g>
					<path style="fill:#E07F4F;" d="M345.528,211.081c-3.048-9.878-13.05-11.926-16.402-7.325c-2.726,3.744-1.723,9.456-0.972,13.51
						c0.716,3.864,6.177,11.521,11.327,11.147c4.035-0.292,5.425-4.182,6.916-7.424
						C346.396,220.989,346.383,213.851,345.528,211.081z"/>
					<path style="fill:#C15F33;" d="M345.46,212.215c-2.337-6.383-17.482-12.371-15.311-1.481l0.302,0.022
						c-1.029-9.072,15.483-2.521,11.63,6.267c-6.963-0.356-5.323,6.323-0.668,4.777C344.738,220.697,346.585,215.289,345.46,212.215
						z"/>
				</g>
			</g>
		</g>
		<path style="fill:#FFFFFF;" d="M383.166,315.971c-0.732,0.31-5.953,4.011-11.714,8.296c-6.467,4.808-13.612,10.353-15.851,12.668
			c-0.831-9.554-5.518-21.414-9.412-30.304c-2.949-6.727-8.715-13.14-13.164-18.68c4.24-4.744,10.152-15.015,12.412-18.632
			C352.105,278.568,383.166,315.971,383.166,315.971z"/>
		<path style="fill:#FFFFFF;" d="M413.154,289.917c-4.449,5.54-7.526,36.164-8.357,45.718c-2.234-2.315-7.708-7.482-12.605-11.943
			c-4.375-3.987-8.293-7.411-9.026-7.72c0,0,9.436-27.278,16.1-36.694c0.04-0.059,0.082-0.118,0.123-0.175
			C402.108,284.959,408.767,285.006,413.154,289.917z"/>
		<g>
			<g>
				<path style="fill:#FFA471;" d="M461.016,271.023c3.142-9.06,11.763-10.238,11.374,0.988c4.439-8.874,10.75-5.022,7.476,3.81
					c1.415-2.605,3.826-6.824,7.007-5.411c3.471,1.541,3.023,7.127,2.08,9.878c1.708-1.524,3.743-3.766,5.627-2.647
					c4.177,2.481,1.592,7.699,1.02,11.008l-1.904,3.737c-2.092,5.125-6.351,0.289-6.977-2.999c-2.826,7.911-7.139-1.679-6.926-5.607
					c-1.251,2.68-2.224,7.11-6.137,4.928c-2.354-1.313-3.188-7.253-3.486-9.419c-2.096,1.753-5.526,5.526-8.278,3.687
					C458.945,281.006,460.019,273.897,461.016,271.023z"/>
				<g>
					<path style="fill:#FFA471;" d="M468.344,311.206l0.09-0.145C468.491,311.404,468.471,311.508,468.344,311.206z"/>
					<path style="fill:#FFA471;" d="M451.026,294.295c0.609-1.933,2.55-18.127,3.247-19.729c2.932-6.745,9,11.042,9.2,14.092
						c9.297-0.182,18.714,17.688,13.547,21.863l-8.587,0.54C468.265,310.042,449.202,300.082,451.026,294.295z"/>
				</g>
			</g>
		</g>
		<path style="fill:#E07F4F;" d="M466.763,308.885c1.094,6.182,1.605,12.367,2.305,17.428c1.95,14.118,2.88,27.603,3.431,41.979
			c1.077,28.03,5.031,50.351,27.682,70.653c8.129,7.286,19.397,5.527,24.827-2.575c0.345-0.512,0.694-1.112,1.044-1.776
			c-1.418-0.132-2.726-0.534-3.731-1.829c-2.129-2.737,0.407-7.636-0.234-10.852c-11.409,17.199-25.031-6.177-30.869-17.541
			c-7.983-15.544-10.764-31.009-12.515-48.588C477.342,342.135,473.746,317.784,466.763,308.885z"/>
		<g>
			<g>
				<g>
					<path style="fill:#2F6C81;" d="M474.24,837.843c0.25-0.434,0.563-0.717,0.951-0.816L474.24,837.843z"/>
					<path style="fill:#FFA471;" d="M474.24,837.843c-3.114,5.405,3.872,34.865,5.041,40.719
						c-4.324,0.486-10.058,2.473-14.495,2.229c-4.253-8.553-6.648-17.495-9.118-27.015L474.24,837.843z"/>
				</g>
				<g>
					<path style="fill:#247DBA;" d="M364.599,535.654c0.039,7.327,1.366,11.441,3.2,15.341c1.3,2.765,2.853,5.419,4.381,9.032
						c0.879,2.07,1.749,4.458,2.556,7.36c0.54,1.93,1.286,4.35,2.203,7.182c0.267,0.826,0.551,1.688,0.845,2.583
						c0.413,1.247,0.851,2.564,1.314,3.938c0.848,2.517,1.776,5.232,2.767,8.115c0.859,2.495,1.765,5.117,2.707,7.84
						c0.013,0.039,0.027,0.08,0.041,0.119c0.212,0.613,0.427,1.236,0.645,1.861c2.187,6.317,4.555,13.143,6.978,20.231
						c0.333,0.981,0.669,1.964,1.007,2.955c0.482,1.415,0.964,2.841,1.449,4.273c0.121,0.358,0.242,0.716,0.363,1.077
						c0.727,2.153,1.454,4.323,2.178,6.499c0.121,0.363,0.243,0.727,0.364,1.09c1.085,3.269,2.164,6.554,3.224,9.831
						c0.119,0.363,0.237,0.73,0.355,1.093c0.039,0.124,0.08,0.245,0.118,0.366c0.292,0.914,0.587,1.829,0.879,2.74
						c0.135,0.421,0.267,0.84,0.399,1.255c0.113,0.358,0.228,0.719,0.342,1.077c0.231,0.73,0.462,1.457,0.688,2.181
						c0.3,0.956,0.598,1.905,0.892,2.856c0.711,2.286,1.405,4.552,2.076,6.793c0.413,1.369,0.818,2.729,1.215,4.081
						c0.727,2.478,1.429,4.918,2.096,7.311c0.094,0.336,0.187,0.672,0.281,1.005c0.741,2.677,1.437,5.29,2.087,7.826
						c0.08,0.316,0.16,0.634,0.24,0.948c0.573,2.26,1.104,4.458,1.589,6.581c0.102,0.46,0.207,0.914,0.306,1.366
						c0.016,0.077,0.033,0.155,0.05,0.229c0.115,0.523,0.228,1.041,0.338,1.553c0.171,0.796,0.331,1.578,0.485,2.349
						c0.041,0.196,0.08,0.391,0.118,0.586c0.198,1.011,0.383,1.999,0.553,2.96c0.03,0.162,0.058,0.325,0.085,0.485
						c0.025,0.143,0.05,0.286,0.075,0.429c0.044,0.259,0.088,0.515,0.126,0.768c0.066,0.391,0.127,0.777,0.187,1.159
						c0.151,0.983,0.286,1.936,0.402,2.859c0.025,0.212,0.049,0.424,0.074,0.63c0.063,0.543,0.121,1.071,0.171,1.589
						c0.022,0.217,0.041,0.432,0.06,0.647c0.02,0.217,0.036,0.432,0.052,0.644c0.014,0.179,0.027,0.352,0.038,0.526
						c0.006,0.077,0.011,0.155,0.014,0.231c0.014,0.184,0.025,0.369,0.033,0.551c0.019,0.372,0.036,0.735,0.047,1.094
						c0.402,13.195-0.821,44.312,0.212,57.702c0.749,9.654,21.916,62.968,38.629,95.626h23.659
						c-1.575-16.632-3.354-37.378-5.722-57.009c-0.444-3.663-0.906-7.283-1.394-10.833c-2.599-18.965-5.865-35.855-10.186-45.484
						c-3.88-8.65-7.658-22.008-9.847-33.826c-0.903-4.885-1.536-9.511-1.792-13.427c-1.237-18.868-5.943-89.326-10.241-144.892
						c-1.49-19.272-2.93-36.753-4.161-49.668c-1.261-13.259-4.083-18.287-4.386-19.562l-42.728,9.863l-23.728,5.477
						C368.264,512.421,364.558,527.621,364.599,535.654z"/>
					<g>
						<path style="fill:#21484F;" d="M363.995,532.27l1.377,0.2C364.763,532.1,364.292,532.014,363.995,532.27z"/>
					</g>
				</g>
				<g>
					<path style="fill:#141D1E;" d="M500.983,897.029l-39.998-0.123c-0.125-1.391-0.258-3.536-0.351-5.459
						c-0.079-1.583-0.131-3.016-0.131-3.758c0-4.54-0.563-9.773,1.475-14.008c0.671-1.393,3.466-1.797,5.791-1.885
						c1.826-0.068,3.362,0.059,3.362,0.059c0.01-0.014,0.018-0.024,0.03-0.039c4.631,0.248,6.676,2.107,8.495,4.867
						c0.723,1.096,1.406,2.337,2.202,3.674c0.212,0.357,0.432,0.718,0.664,1.087c0.121,0.192,0.263,0.376,0.426,0.551
						c0.963,1.046,2.63,1.801,4.561,2.458c1.202,0.407,2.507,0.776,3.81,1.152c3.926,1.136,7.834,2.338,8.846,4.869
						C500.526,891.374,503.196,895.923,500.983,897.029z"/>
					<path style="fill:#080C0C;" d="M459.178,897.275c-0.098-0.291-0.151-0.6-0.151-0.922c0-1.73,1.531-3.134,3.419-3.134h38.221
						c1.889,0,3.42,1.404,3.42,3.134c0,0.321-0.053,0.63-0.151,0.922H459.178z"/>
					<path style="fill:#3D4444;" d="M482.947,881.995h-8.763c-0.452,0-0.821-0.367-0.821-0.819c0-0.451,0.369-0.819,0.821-0.819
						h7.674c0.212,0.357,0.432,0.718,0.664,1.087C482.642,881.635,482.785,881.82,482.947,881.995z"/>
					<path style="fill:#3D4444;" d="M491.318,885.604c-0.127,0.288-0.415,0.487-0.75,0.487h-11.798
						c-0.452,0-0.819-0.366-0.819-0.818c0-0.453,0.366-0.821,0.819-0.821h8.738C488.711,884.859,490.016,885.228,491.318,885.604z"
						/>
					<g>
						<path style="fill:#080C0C;" d="M460.502,887.689c0,0.742,0.052,2.175,0.13,3.758c0.093,1.923,0.226,4.068,0.351,5.459h19.039
							c-0.988-1.069-2.102-1.718-3.438-2.396c-3.395-1.723-6.954-3.311-9.468-6.272c-2.384-2.812-3.259-7.035-2.765-10.749
							c0.244-1.823,1.618-4.323,3.417-5.692c-2.325,0.088-5.12,0.491-5.791,1.885C459.939,877.916,460.502,883.15,460.502,887.689z"
							/>
					</g>
				</g>
			</g>
			<g>
				<path style="fill:#2F6C81;" d="M317.927,840.556c-0.351-0.357-0.724-0.552-1.125-0.551L317.927,840.556z"/>
				<path style="fill:#FFA471;" d="M317.927,840.556c4.373,4.449,5.012,34.719,5.351,40.68c4.307-0.617,10.357-0.133,14.589-1.484
					c1.968-9.347,2.039-18.604,2.039-28.439L317.927,840.556z"/>
			</g>
			<g>
				<path style="fill:#141D1E;" d="M339.578,886.583c0,0.742-0.052,2.175-0.13,3.758c-0.093,1.922-0.226,4.067-0.352,5.46H302.71
					c-2.212-1.106,0.008-5.369,0.369-6.268c1.979-4.945,11.845-4.982,14.48-9.195c1.099-1.755,1.952-3.372,2.866-4.761
					c1.819-2.76,3.864-4.618,8.495-4.867c0.013,0.015,0.02,0.024,0.03,0.039c0,0,1.536-0.128,3.362-0.059
					c2.326,0.089,5.12,0.492,5.791,1.886C340.14,876.81,339.578,882.043,339.578,886.583z"/>
				<path style="fill:#080C0C;" d="M340.914,896.169c0.089-0.291,0.138-0.6,0.138-0.922c0-1.731-1.403-3.134-3.134-3.134h-35.024
					c-1.73,0-3.133,1.404-3.133,3.134c0,0.321,0.048,0.63,0.138,0.922H340.914z"/>
				<path style="fill:#3D4444;" d="M332.943,880.069c0,0.453-0.367,0.819-0.819,0.819h-11.798c-0.453,0-0.82-0.367-0.82-0.819l0,0
					c0-0.453,0.367-0.819,0.82-0.819h11.798C332.576,879.25,332.943,879.617,332.943,880.069L332.943,880.069z"/>
				<path style="fill:#3D4444;" d="M329.501,884.33c0,0.453-0.367,0.82-0.819,0.82h-11.798c-0.452,0-0.819-0.367-0.819-0.82l0,0
					c0-0.452,0.367-0.819,0.819-0.819h11.798C329.134,883.51,329.501,883.878,329.501,884.33L329.501,884.33z"/>
				<g>
					<path style="fill:#080C0C;" d="M339.578,886.583c0,0.742-0.052,2.175-0.13,3.758c-0.093,1.922-0.226,4.067-0.352,5.46h-19.039
						c0.988-1.07,2.101-1.719,3.438-2.397c3.394-1.723,6.954-3.311,9.468-6.273c2.384-2.811,3.259-7.034,2.765-10.749
						c-0.244-1.824-1.617-4.324-3.417-5.693c2.326,0.089,5.12,0.492,5.791,1.886C340.14,876.81,339.578,882.043,339.578,886.583z"/>
				</g>
			</g>
			<path style="fill:#247DBA;" d="M317.41,865.076h23.183c3.384-19.612,7.138-42.233,9.09-61.847
				c0.587-5.893,1.014-11.516,1.217-16.701c0.292-7.454,0.129-14.008-0.669-19.176c-1.925-12.482,0.876-39.388,3.516-53.336
				c0.141-0.733,0.278-1.432,0.416-2.09c2.366-11.326,8.06-40.938,14.404-74.555c3.461-18.342,7.115-37.877,10.53-56.282
				c1.465-7.92,2.889-15.627,4.232-22.941c0.364-1.985,0.722-3.938,1.074-5.859c3.373-18.408,6.144-33.823,7.705-43.012
				c0.859-5.053,1.352-8.225,1.382-8.974l-4.155-0.064l-60.217-0.925l-4.037-0.061c0.768,7.124-6.901,20.941-9.018,28.724
				c-0.636,2.341-1.231,4.689-1.782,7.044c-2.506,10.69-4.117,21.528-4.563,32.521v0.014c-0.086,2.118-0.129,4.238-0.127,6.364
				c0.025,23.519,17.563,106.803,10.158,137c-3.153,12.865-12.012,53.884-14.603,67.084
				C303.311,787.349,312.745,829.997,317.41,865.076z"/>
			<g>
				<g>
					<g>
						<path style="fill:#247DBA;" d="M309.719,567.541v0.014c0.063,3.783,0.171,7.71,0.325,11.783
							c4.525,1.099,9.211,0.203,13.997-1.839c17.885-7.642,37.138-31.329,54.371-26.873c1.993,0.515,3.992,1.071,5.992,1.663
							c10.106,2.988,20.226,6.884,29.74,11.147c8.817,3.952,16.737-1.68,26.438-2.274c0.826-42.96,6.611-163.584-0.826-191.674
							c-29.742-8.261-100.527,2.239-108.926,1.776c0.633,3.825,1.341,7.782,1.999,11.833c1.71,10.533,3.095,21.677,2.046,32.658
							c-0.62,6.474-2.514,14.457-8.927,17.555c-4.579,2.211-11.494,0.165-13.84-4.552l5.375,36.569
							C317.481,485.465,308.766,510.686,309.719,567.541z"/>
					</g>
				</g>
			</g>
			<path style="fill:#196893;" d="M317.41,865.076h23.183c3.384-19.612,7.138-42.233,9.09-61.847
				c0.587-5.893,1.014-11.516,1.217-16.701c-13.105-8.487-20.983-26.24-19.741-42.092c-1.104,2.09-3.365,4.351-4.21,6.138
				c-0.774-9.283,3.596-14.892,5.562-22.743c1.919-7.682,0.799-17.387,0.799-25.636c0-36.01-1.608-71.364-6.854-105.74
				c-0.928-6.086-1.76-12.444-2.415-18.956c-2.632-26.05-2.508-54.575,5.078-78.185c0.683-2.129,1.426-4.219,2.236-6.262
				c5.023,1.316,11.023,3.761,16.169,4.042c-2.074-4.744-6.529-8.396-10.524-11.94c6.341-0.157,15.137-0.124,19.33-5.24
				c-9.627-2.087-21.801-1.082-25.281-10.186c-0.567-1.484-0.16-12.769,0.116-15.363c0.729-6.906,1.654-5.149,5.174-11.29
				c9.819-17.139,5.791-45.284-3.029-60.305l-0.482,0.325c1.71,10.533,3.095,21.677,2.046,32.658
				c-0.62,6.474-2.514,14.457-8.927,17.555c-4.579,2.211-11.494,0.165-13.84-4.552l5.375,36.569c0,20.14-8.715,45.361-7.762,102.215
				v0.014c-0.086,2.118-0.129,4.238-0.127,6.364c0.025,23.519,17.563,106.803,10.158,137c-3.153,12.865-12.012,53.884-14.603,67.084
				C303.311,787.349,312.745,829.997,317.41,865.076z"/>
			<g>
				<path style="fill:#247DBA;" d="M342.542,384.803l-9.618,0.597c-0.446-7.181-4.403-26.328-11.805-46.402
					c-5.728-15.539-11.997-27.506-18.232-34.972c3.274-1.776,6.272-3.304,8.773-4.409c7.906,10.188,14.159,24.265,18.505,36.045
					C337.448,355.432,341.977,375.735,342.542,384.803z"/>
				<path style="fill:#247DBA;" d="M438.375,379.711l-9.373-2.247c1.68-6.997,3.505-26.46,2.31-47.823
					c-0.694-12.452-2.28-23.059-4.629-31.364c3.772,1.963,7.636,4.009,11.298,6.033c1.661,8.379,2.525,17.103,2.955,24.794
					C442.111,350.137,440.492,370.878,438.375,379.711z"/>
				<path style="fill:#16445B;" d="M342.35,379.084c0,2.281-1.849,4.13-4.13,4.13s-4.13-1.849-4.13-4.13
					c0-2.281,1.849-4.13,4.13-4.13S342.35,376.803,342.35,379.084z"/>
				<path style="fill:#16445B;" d="M438.173,374.954c0,2.281-1.849,4.13-4.131,4.13c-2.281,0-4.13-1.849-4.13-4.13
					c0-2.281,1.849-4.13,4.13-4.13C436.323,370.824,438.173,372.673,438.173,374.954z"/>
			</g>
			<path style="fill:#2992CC;" d="M360.44,394.276v23.959c3.717,0.677,16.99-1.639,22.16,0.884c4.92,2.4,7.048,4.728,9.362,8.536
				c2.815-4.677,5.507-6.333,7.71-9.087c9.267-1.652,14.319-1.102,20.253-1.159c4.131-7.436,4.131-14.045,2.396-26.27
				C412.172,391.409,378.616,392.624,360.44,394.276z"/>
			<path style="fill:#196893;" d="M366.103,562.442c3.271,12.777,7.476,25.331,6.281,40.071c-0.978,12.025-3.39,23.125-3.817,34.859
				c3.461-18.342,7.115-37.877,10.53-56.282c0.848,2.517,1.776,5.232,2.767,8.115c0.859,2.495,1.765,5.117,2.707,7.84
				c0.013,0.039,0.027,0.08,0.041,0.119c0.212,0.613,0.427,1.236,0.645,1.861c2.187,6.317,4.555,13.143,6.978,20.231
				c0.336,0.981,0.669,1.964,1.007,2.955c0.482,1.415,0.964,2.841,1.449,4.273c0.121,0.358,0.242,0.719,0.363,1.077
				c0.727,2.153,1.454,4.323,2.178,6.499c0.121,0.363,0.243,0.727,0.364,1.09c1.085,3.269,2.164,6.554,3.224,9.831
				c0.119,0.363,0.237,0.73,0.355,1.093c0.039,0.124,0.08,0.245,0.118,0.366c0.295,0.914,0.587,1.829,0.879,2.74
				c0.135,0.421,0.267,0.84,0.399,1.255c0.116,0.361,0.228,0.719,0.342,1.077c0.231,0.73,0.462,1.457,0.688,2.181
				c0.3,0.956,0.598,1.905,0.892,2.856c0.711,2.286,1.405,4.552,2.076,6.793c0.413,1.369,0.818,2.729,1.215,4.081
				c0.727,2.478,1.429,4.918,2.096,7.311c0.096,0.336,0.187,0.672,0.281,1.005c0.741,2.677,1.437,5.29,2.087,7.826
				c0.08,0.316,0.163,0.634,0.24,0.948c0.573,2.26,1.104,4.458,1.589,6.581c0.102,0.46,0.207,0.914,0.306,1.366
				c0.016,0.077,0.033,0.155,0.05,0.229c0.115,0.523,0.228,1.041,0.338,1.553c0.171,0.796,0.331,1.578,0.485,2.349
				c0.041,0.196,0.08,0.391,0.118,0.586c0.198,1.011,0.383,1.999,0.553,2.96c0.03,0.162,0.058,0.325,0.085,0.485
				c0.025,0.143,0.05,0.286,0.075,0.429c0.044,0.259,0.088,0.515,0.126,0.768c0.066,0.391,0.127,0.777,0.187,1.159
				c0.151,0.983,0.286,1.936,0.402,2.859c0.025,0.212,0.049,0.421,0.074,0.63c0.063,0.543,0.121,1.071,0.171,1.589
				c0.022,0.217,0.041,0.435,0.06,0.647c0.02,0.217,0.036,0.432,0.052,0.644c0.014,0.177,0.027,0.352,0.038,0.526
				c0.006,0.077,0.011,0.155,0.014,0.231c0.014,0.184,0.025,0.369,0.033,0.551c0.019,0.372,0.036,0.735,0.047,1.094
				c0.402,13.195-0.821,44.312,0.212,57.702c0.749,9.654,21.916,62.968,38.629,95.626h23.659
				c-1.575-16.632-3.354-37.378-5.722-57.009c-15.013,0.231-29.613-8.77-37.219-23.012c-11.285-21.134-9.698-43.524-8.363-66.793
				c2.853-0.157,5.529,0.025,8.055,0.535c-3.651-4.381-9.136-6.369-11.439-11.4c-2.572-5.622-1.787-13.735-2.707-19.826
				c-1.892-12.546-4.076-24.648-6.405-37.196c-4.706-25.35-12.124-48.511-20.592-72.517c3.841-0.388,6.807,0.63,10.59,0.493
				c-4.183-3.588-11.981-6.562-17.183-9.109c2.34-4.563,21.068-21.933,23.753-28.443c-6.523,4.524-31.339,22.063-31.339,22.063
				c-1.112-0.413-18.078-5.403-22.792-7.561C360.783,557.553,363.451,559.941,366.103,562.442z"/>
		</g>
		<g>
			<path style="fill:#FFA471;" d="M222.095,566.379c0.022,0.716,0.041,1.429,0.061,2.142c0.014,0.452,0.025,0.906,0.033,1.358
				c5.887,1.035,11.246,3.359,18.022,3.491c0.568,0.011,1.143,0.006,1.73-0.016c0.897-0.031,1.82-0.105,2.773-0.226
				c0.113-0.448,0.237-0.928,0.372-1.434c0.286-1.088,0.62-2.305,0.991-3.635c5.053-18.073,17.326-56.879,19.777-70.301
				c2.74-15.018,1.867-38.543,8.14-50.797c2.443-4.772,6.689-13.721,11.505-24.136c1.784-3.855,3.649-7.914,5.524-12.034
				c9.104-19.98,18.56-41.464,21.222-48.792l-57.171-17.637c-16.637,14.801-21.225,55.907-24.389,79.374
				c-1.844,13.68,0.43,26.699-3.637,40.804c-4.015,13.911-6.829,28.718-7.14,42.883
				C219.465,527.038,221.486,547.164,222.095,566.379z"/>
			<path style="fill:#E07F4F;" d="M243.54,570.295c3.58,1.377,8.199,13.308,8.802,16.542c0.481,2.576,0.006,5.269,0.382,7.869
				c0.344,2.38,1.803,4.924,2.087,7.435c0.383,3.39,0.696,3.577-3.304,2.767c-2.052-0.416-4.432-1.682-6.115-2.89
				c-4.354-3.127-6.232-7.28-8.754-11.463L243.54,570.295z"/>
			<g>
				<path style="fill:#14333F;" d="M245.394,602.017c0.016,0.08,0.03,0.16,0.044,0.24h0.295
					C245.617,602.177,245.504,602.097,245.394,602.017z M198.364,605.423v30.976c0,0.4,0.016,0.796,0.052,1.187
					c0.603,6.813,6.339,12.168,13.303,12.168h42.954c6.964,0,12.7-5.355,13.303-12.168c0.036-0.391,0.052-0.788,0.052-1.187v-30.976
					c0-7.363-5.992-13.355-13.355-13.355h-42.954c-0.119,0-0.237,0.003-0.355,0.006
					C204.163,592.261,198.364,598.178,198.364,605.423z M208.553,605.423c0-1.503,1.054-2.767,2.464-3.086
					c0.226-0.052,0.46-0.08,0.702-0.08h42.954c0.05,0,0.102,0,0.152,0.003c1.677,0.08,3.015,1.468,3.015,3.164v30.976
					c0,0.419-0.083,0.821-0.234,1.187c-0.468,1.159-1.605,1.98-2.933,1.98h-42.954c-1.327,0-2.465-0.82-2.935-1.98
					c-0.149-0.366-0.231-0.768-0.231-1.187V605.423z"/>
				<g>
					<g>
						<path style="fill:#A3343F;" d="M143.607,645.846v88.404c0,4.56,3.875,8.261,8.656,8.261h175.735
							c4.781,0,8.656-3.701,8.656-8.261v-88.404c0-4.563-3.875-8.261-8.656-8.261H152.263
							C147.482,637.585,143.607,641.283,143.607,645.846z"/>
						<path style="fill:#C0434B;" d="M143.607,645.846v88.404c0,4.56,3.874,8.261,8.657,8.261h133.315
							c4.784,0,8.658-3.701,8.658-8.261v-88.404c0-4.563-3.874-8.261-8.658-8.261H152.264
							C147.481,637.585,143.607,641.283,143.607,645.846z"/>
					</g>
					<g>
						<path style="fill:#A3343F;" d="M143.607,657.114v-31.055c0-4.781,3.875-8.656,8.656-8.656h175.736
							c4.78,0,8.656,3.875,8.656,8.656v31.055H143.607z"/>
						<path style="fill:#C0434B;" d="M143.607,626.058v31.056h150.955v-31.056c0-4.78-3.882-8.655-8.674-8.655H152.281
							C147.489,617.403,143.607,621.278,143.607,626.058z"/>
					</g>
					<rect x="204.285" y="652.924" style="opacity:0.4;fill:#C0434B;" width="28.5" height="89.999"/>
					<path style="fill:#A3343F;" d="M254.498,654.159h2.682h6.125h2.682c0.935,0,1.693,0.857,1.693,1.913v20.406
						c0,1.057-0.758,1.913-1.693,1.913h-2.682h-6.125h-2.682c-0.935,0-1.693-0.857-1.693-1.913v-20.406
						C252.805,655.016,253.563,654.159,254.498,654.159z"/>
					<path style="fill:#A3343F;" d="M167.235,654.297h2.682h6.125h2.682c0.935,0,1.693,0.856,1.693,1.913v20.406
						c0,1.056-0.758,1.913-1.693,1.913h-2.682h-6.125h-2.682c-0.935,0-1.693-0.857-1.693-1.913v-20.406
						C165.541,655.153,166.299,654.297,167.235,654.297z"/>
					<path style="fill:#E55368;" d="M286.065,621.118c0,0-132.845-0.983-135.048-0.432c-2.203,0.551-4.681,2.203-4.681,6.884
						s0,17.899,0,17.899s1.377-18.449,4.681-21.203C154.321,621.512,286.065,621.118,286.065,621.118z"/>
					<g>
						<path style="fill:#BC3F51;" d="M140.828,654.281c0,2.28,1.85,4.131,4.13,4.131h192.756c2.28,0,4.13-1.85,4.13-4.131
							c0-1.14-0.463-2.173-1.212-2.919c-0.746-0.749-1.779-1.212-2.919-1.212H144.959
							C142.678,650.15,140.828,652.001,140.828,654.281z"/>
						<path style="fill:#D14A57;" d="M140.828,654.281c0,2.28,2.043,4.131,4.561,4.131h148.387c2.518,0,4.561-1.85,4.561-4.131
							c0-1.14-0.511-2.173-1.338-2.919c-0.824-0.749-1.964-1.212-3.223-1.212H145.389
							C142.872,650.15,140.828,652.001,140.828,654.281z"/>
					</g>
					<g>
						<path style="fill:#AAAEAF;" d="M252.827,675.36c0,1.056,0.758,1.913,1.694,1.913h8.807c0.935,0,1.693-0.857,1.693-1.913
							v-20.406c0-1.056-0.758-1.913-1.693-1.913h-8.807c-0.936,0-1.694,0.856-1.694,1.913V675.36z"/>
						<path style="fill:#CECECE;" d="M250.145,675.36c0,1.056,0.759,1.913,1.694,1.913h8.807c0.936,0,1.694-0.857,1.694-1.913
							v-20.406c0-1.056-0.758-1.913-1.694-1.913h-8.807c-0.935,0-1.694,0.856-1.694,1.913V675.36z"/>
						<path style="fill:#DDDDDD;" d="M252.342,671.491c0,1.369,0.982,2.478,2.193,2.478l0,0c1.212,0,2.194-1.109,2.194-2.478
							v-12.667c0-1.369-0.982-2.479-2.194-2.479l0,0c-1.212,0-2.193,1.11-2.193,2.479V671.491z"/>
					</g>
					<g>
						<path style="fill:#AAAEAF;" d="M165.563,675.498c0,1.056,0.758,1.913,1.694,1.913h8.807c0.935,0,1.693-0.857,1.693-1.913
							v-20.407c0-1.057-0.758-1.913-1.693-1.913h-8.807c-0.936,0-1.694,0.856-1.694,1.913V675.498z"/>
						<path style="fill:#CECECE;" d="M162.882,675.498c0,1.056,0.759,1.913,1.694,1.913h8.806c0.936,0,1.694-0.857,1.694-1.913
							v-20.407c0-1.057-0.758-1.913-1.694-1.913h-8.806c-0.935,0-1.694,0.856-1.694,1.913V675.498z"/>
						<path style="fill:#DDDDDD;" d="M165.079,671.628c0,1.369,0.982,2.478,2.194,2.478l0,0c1.212,0,2.194-1.109,2.194-2.478
							v-12.667c0-1.369-0.983-2.478-2.194-2.478l0,0c-1.212,0-2.194,1.109-2.194,2.478V671.628z"/>
					</g>
				</g>
			</g>
			<path style="fill:#FFA471;" d="M211.031,603.358c6.609,9.913,36.624,9.704,34.363-1.341c-1.028-5.012-7.102-15.027,4.048-13.529
				c-1.168-4.442-1.517-11.796-3.701-15.647c-0.217-0.385-0.438-0.768-0.655-1.148c-0.884-1.531-1.768-3.015-2.586-4.45
				c-0.658-1.145-1.275-2.264-1.826-3.349l-3.293-0.008l-12.672-0.036c-0.565,0.469-1.165,0.914-1.674,1.467
				c-0.322,0.35-0.637,0.705-0.939,1.061c-6.917,8.052-9.586,17.246-10.58,24.488C210.634,597.272,211.067,602.152,211.031,603.358z
				"/>
			<g>
				<path style="fill:#E07F4F;" d="M259.595,461.111c0.013,0.003,0.025,0.009,0.038,0.013c-0.008,0.01-0.015,0.019-0.022,0.028
					C259.393,461.355,259.388,461.342,259.595,461.111z"/>
				<path style="fill:#E07F4F;" d="M211.031,603.358c6.609,9.913,36.624,9.704,34.363-1.341c-1.028-5.012-7.102-15.027,4.048-13.529
					c-1.168-4.442-1.517-11.796-3.701-15.647c-0.217-0.385-0.438-0.768-0.655-1.148c0.286-1.088,0.62-2.305,0.991-3.635
					c5.053-18.073,17.326-56.879,19.777-70.301c2.74-15.018,1.867-38.543,8.14-50.797c2.443-4.772,6.689-13.721,11.505-24.136
					l-10.015-9.214c-2.167,9.032-1.741,18.662-4.39,27.537c-2.28,7.633-6.639,13.928-11.46,19.975
					c9.875,2.751-1.183,45.841-2.448,53.148c-5.934,34.27-16.271,48.69-16.949,51.893c-0.207,0.969,0.421,4.086,1.514,6.746
					c0.058,0.138,0.121,0.286,0.19,0.444c0.81,1.812,2.379,4.852,1.627,6.606c-1.082,2.517-4.483,1.597-5.422,3.39
					c-2.39,4.544,2.037,11.645-1.352,16.836c-3.2,4.901-7.328,1.865-8.658-2.974c-2.594,7.253-7.069,3.037-8.707-1.817
					c-0.573,4.934-4.695,1.842-6.317-0.454c-0.818-1.157-1.289-2.58-1.597-4.072C210.634,597.272,211.067,602.152,211.031,603.358z"
					/>
			</g>
		</g>
		<g>
			<g>
				<path style="fill:#DEF0F9;" d="M227.341,411.648c0.35,0.895,0.848,1.782,1.531,2.663c0.454,0.587,1.393,1.448,2.734,2.503
					c6.928,5.444,24.527,15.977,40.622,19.631c1.272,0.289,2.534,0.534,3.781,0.733c0.322,0.049,0.642,0.096,0.958,0.14
					c0.554,0.077,1.102,0.143,1.647,0.198c5.501,0.565,10.607,0.055,14.765-2.071c0.856-4.155,2.013-8.625,3.459-13.22
					c1.239-3.951,2.69-7.999,4.342-12.02c2.241-5.463,4.855-10.885,7.812-15.968c4.733-8.143,10.351-15.42,16.748-20.614
					l-30.566-64.446c-1.341,0.465-2.654,0.95-3.938,1.454c-0.003,0.003-0.005,0.003-0.005,0.003
					c-8.892,3.503-16.473,7.994-22.974,13.223c-0.622,0.496-1.233,1.002-1.834,1.515c-21.357,18.191-30.544,44.54-36.519,69.067
					c-0.072,0.292-0.146,0.584-0.221,0.87C228.018,401.65,225.454,406.791,227.341,411.648z"/>
				<path style="opacity:0.5;fill:#FFFFFF;" d="M296.837,422.225c-1.446,4.596-2.602,9.065-3.459,13.22
					c-4.571,2.335-10.285,2.72-16.412,1.872c-0.316-0.044-0.636-0.091-0.958-0.14c-20.08-3.172-44.152-19.011-47.137-22.866
					c-0.683-0.881-1.181-1.768-1.531-2.663c-1.887-4.857,0.677-9.998,2.343-16.34c9.478,7.283,36.087,23.635,54.883,26.798
					c0.025,0.003,0.047,0.008,0.072,0.011C289.079,422.864,293.235,422.979,296.837,422.225z"/>
			</g>
			<path style="opacity:0.7;fill:#C7DDE5;" d="M276.967,437.318c0.554,0.077,1.102,0.143,1.647,0.198
				c5.501,0.565,10.607,0.055,14.765-2.071c0.856-4.155,2.013-8.625,3.459-13.22c1.239-3.951,2.69-7.999,4.342-12.02
				c8.602,12.659,8.548,19.03,15.057,22.407c1.044,0.542,4.406,1.652,4.406,1.652c2.627-5.196-3.924-22.53-11.651-40.027
				c-1.873-4.238-3.756-8.118-5.51-11.287c-1.897-3.428-3.645-6.028-5.064-7.366c1.509,4.078,2.238,8.608,2.489,13.215
				c0.187,3.461,0.107,6.967-0.116,10.351c-1.305-0.722-2.572-1.19-3.836-1.481c-1.702-0.391-3.404-0.46-5.194-0.388
				c-1.757,0.072-3.602,0.278-5.615,0.446c1.569,1.022,2.492,2.533,4.747,3.302c-0.677,5.741-3.018,13.388-6.232,21.03
				c-0.008,0.019-0.016,0.041-0.025,0.061c-0.116,0.272-0.231,0.542-0.347,0.815C282.144,427.942,279.627,432.918,276.967,437.318z"
				/>
		</g>
		<g>
			<path style="fill:#FFBB4D;" d="M288.875,593.076c13.475,7.117,28.863,14.261,44.578,16.706c4.715,0.734,9.458,1.045,14.19,0.805
				c4.724-20.243,9.543-39.252,12.11-59.292c27.755,3.504,55.992,0.81,81.863-5.828l-0.303-7.496l-0.066-1.64
				c-16.325,10.117-109.022,2.489-131.109-8.172C305.255,537.727,290.389,582.557,288.875,593.076z"/>
			<path style="fill:#E2921E;" d="M308.695,543.687c0.382,0.357,0.811,0.701,1.283,1.039c4.564,3.25,12.934,5.495,17.806,6.595
				c4.968,1.121,10.128,1.94,14.728,2.36c0.338,0.033,0.673,0.061,1.006,0.088c0.959,0.079,1.891,0.138,2.786,0.179
				c0.942,0.044,1.844,0.066,2.698,0.066c0.547,0,1.074-0.011,1.58-0.028l-0.107-3.02c-1.434,0.052-3.017,0.028-4.704-0.06
				c-0.517-0.027-1.042-0.06-1.577-0.102c-0.135-0.008-0.27-0.019-0.404-0.03c-10.673-0.844-24.464-4.017-30.828-7.721
				c-0.008-0.003-0.014-0.006-0.022-0.011c-0.412-0.239-0.791-0.479-1.135-0.723c-0.396-0.278-0.747-0.558-1.05-0.841l-0.31,0.333
				l-0.874,0.937L308.695,543.687z"/>
			<path style="opacity:0.5;fill:#E2921E;" d="M319.629,596.576c-5.38-6.82-10.359-14.618-10.345-23.494
				c0.022-13.321,10.002-25.264,22.194-30.602c2.594-1.135,5.015-2.325,7.499-2.358c2.698-0.038,72.139,11.528,102.336-2.151
				l-0.066-1.64c-16.325,10.117-109.022,2.489-131.109-8.172c-4.883,9.568-19.748,54.398-21.262,64.917
				c13.475,7.117,28.863,14.261,44.578,16.706c-0.184-0.138-0.366-0.272-0.544-0.409C327.952,605.57,323.468,601.44,319.629,596.576
				z"/>
			<g>
				<path style="fill:#C9C1B9;" d="M294.135,591.104c2.378-0.157,6.787-12.76,8.02-15.034c-1.221,3.147-8.634,23.439-2.04,23.936
					c2.354,0.177,4.851-5.987,6.886-12.363c1.844-5.782,3.311-11.74,3.947-13.314c-0.483,3.302-3.067,11.75-3.404,15.762
					c-0.164,1.936,0.039,9.023,2.026,11.283c0.392,0.447,0.856,0.706,1.4,0.699c1.105-0.017,2.2-1.161,3.241-2.978
					c2.601-4.532,4.88-13.256,6.169-19.144c0.014-0.063,0.026-0.123,0.039-0.184c0.568-2.598,0.933-4.617,1.044-5.439
					c0.075,1.704-0.341,3.872-0.889,6.193c-0.039,0.161-0.08,0.324-0.119,0.488c-1.013,4.189-2.368,8.791-1.989,11.999
					c0.194,1.646,1.206,6.103,3.068,6.417c0.126,0.022,0.246,0.029,0.365,0.019c0.859-0.034,1.542-0.723,2.096-1.615
					c0.623-0.998,1.085-2.245,1.455-3.108c2.362-5.492,3.672-11.501,5.039-17.451c0.034-0.14,0.065-0.282,0.099-0.423
					c0.776-3.369,1.581-6.717,2.613-9.937c-0.312,3.389,0.399,14.198,3.488,15.757c2.018,1.016,3.128-0.241,3.734-2.318
					c0.849-2.91,0.706-7.435,0.691-9.538c-0.003-0.07-0.003-0.138-0.003-0.203c-0.01-4.119-1.102-11.329-0.435-15.496
					c0.104-0.652,0.307-1.261,0.563-1.839c0.072-0.162,0.15-0.324,0.235-0.481c0.368-0.721,0.812-1.395,1.245-2.05
					c-0.118-0.007-0.237-0.017-0.355-0.026c-0.508-0.041-1.025-0.087-1.547-0.138c-9.134-0.909-20.275-3.573-25.571-6.655
					c-0.007-0.002-0.012-0.005-0.019-0.009c-0.362-0.211-0.696-0.421-0.998-0.636c-0.16,0.215-0.316,0.425-0.476,0.63
					c-0.382,0.495-0.759,0.991-1.132,1.487c-0.36,0.481-0.717,0.962-1.068,1.445c-6.226,8.535-10.966,17.29-15.08,27.693
					C295.654,576.605,289.277,591.426,294.135,591.104z"/>
				<path style="fill:#EAE3DA;" d="M307.001,587.643c0.024,4.346,0.312,12.412,2.569,13.731c0.409,0.239,0.878,0.259,1.421-0.003
					c2.149-1.027,1.562-14.367,1.861-16.936c0.019,1.805,0.215,8.827,1.358,14.66c0.996,5.071,2.705,9.245,5.639,8.322
					c1.547-0.488,2.045-3.785,2.047-7.971c0.005-6.34-1.121-14.713-1.443-18.435c-0.036-0.413-0.06-0.768-0.075-1.059
					c-0.007-0.15-0.01-0.285-0.01-0.398c0.017,0.067,0.034,0.14,0.049,0.215c0.053,0.227,0.104,0.481,0.154,0.755
					c0.708,3.775,1.416,11.416,2.492,14.93c0.155,0.51,0.481,1.37,0.929,2.378c1.498,3.389,4.36,8.451,6.702,7.474
					c4.24-1.769,1.088-21.596-0.208-28.034c-0.147-0.728-0.268-1.283-0.355-1.624c0.167,0.367,0.317,0.771,0.454,1.201
					c1.523,4.776,1.439,13.098,3.701,17.256c0.79,1.458,3.386,5.219,5.233,4.82c2.03-0.44,1.84-3.93,1.888-5.821
					c0.109-4.22-0.365-8.484-0.986-12.752c-0.776-5.342-1.776-10.688-2.146-15.951c0.411,1.378,1.479,3.916,2.838,6.413
					c1.859,3.416,4.262,6.751,6.253,6.923c5.518,0.473,0.894-9.7-0.372-12.84c-1.29-3.207-4.104-8.16-5.52-12.102
					c-0.271-0.75-0.491-1.465-0.638-2.122c-0.007-0.032-0.014-0.061-0.019-0.092c-9.134-0.909-20.275-3.573-25.571-6.655
					c-0.007-0.002-0.012-0.005-0.019-0.009c-0.362-0.211-0.696-0.421-0.998-0.636c-0.16,0.215-0.316,0.425-0.476,0.63
					c-0.382,0.495-0.759,0.991-1.132,1.487c-0.36,0.481-0.717,0.962-1.068,1.445c-0.171,2.693-0.309,4.994-0.375,5.228
					c-2.932,10.86-4.218,21.232-4.172,33.052C307.009,585.54,306.995,586.452,307.001,587.643z"/>
			</g>
		</g>
	</g>
</g>
<g>
	<g>
		<g>
			<rect x="797.642" y="603.2" style="fill:#C9BDAD;" width="43.053" height="132.058"/>
			<path style="opacity:0.4;fill:#C9BDAD;" d="M797.642,603.2v132.058h31.948c-11.104-15.668-16.148-32.505-19.6-52.515
				c-3.373-19.571-4.716-39.309-3.847-59.172c0.258-5.754,0.292-13.317,1.078-20.371H797.642z"/>
		</g>
		<g>
			<path style="fill:#E2CBAA;" d="M781.465,590.906v9.044c0,11.529,9.344,20.872,20.873,20.872h34.787
				c11.528,0,20.871-9.344,20.871-20.872v-9.044c0-6.011-2.539-11.424-6.609-15.229c-3.006-2.825-6.853-4.767-11.132-5.406
				c-1.022-0.159-2.066-0.236-3.13-0.236h-34.787c-1.064,0-2.108,0.076-3.13,0.236c-4.28,0.64-8.128,2.581-11.132,5.406
				C784.005,579.481,781.465,584.895,781.465,590.906z"/>
			<g>
				<path style="fill:#CCB596;" d="M840.255,570.27v33.855c0,3.075,2.492,5.566,5.566,5.566c1.539,0,2.929-0.627,3.938-1.628
					c1.009-1.01,1.628-2.4,1.628-3.938v-28.448C848.381,572.851,844.534,570.909,840.255,570.27z"/>
				<path style="fill:#CCB596;" d="M822.862,570.034v34.091c0,3.075,2.491,5.566,5.566,5.566c1.537,0,2.928-0.627,3.938-1.628
					c1.008-1.01,1.627-2.4,1.627-3.938v-34.091H822.862z"/>
				<path style="fill:#CCB596;" d="M805.469,570.034v34.091c0,3.075,2.491,5.566,5.565,5.566c1.539,0,2.93-0.627,3.939-1.628
					c1.008-1.01,1.629-2.4,1.629-3.938v-34.091H805.469z"/>
				<path style="fill:#CCB596;" d="M788.075,575.676v28.448c0,3.075,2.49,5.566,5.565,5.566c1.538,0,2.93-0.627,3.939-1.628
					c1.008-1.01,1.628-2.4,1.628-3.938V570.27C794.927,570.909,791.08,572.851,788.075,575.676z"/>
			</g>
		</g>
		<path style="fill:#DFEBEE;" d="M663.085,486.259v36.902c0,36.019,29.208,65.233,65.233,65.233h181.714
			c36.011,0,65.232-29.214,65.232-65.233v-36.902H663.085z"/>
		<path style="fill:#E2CBAA;" d="M789.886,735.28v14.355h5.019v43.475c0,13.364,10.842,24.276,24.271,24.276
			c6.71,0,12.779-2.745,17.161-7.121c4.429-4.376,7.11-10.447,7.11-17.155v-43.475h5.019V735.28H789.886z"/>
		<rect x="766.383" y="697.101" style="fill:#C9BDAD;" width="31.263" height="26.787"/>
		<polygon style="fill:#FFF2E3;" points="704.223,769.24 732.179,769.24 727.325,761.161 709.065,761.161 		"/>
		<polygon style="fill:#DDD3CA;" points="704.223,769.24 732.179,769.24 727.325,777.33 709.065,777.33 		"/>
		<polygon style="fill:#FFF2E3;" points="704.223,785.409 732.179,785.409 727.325,777.33 709.065,777.33 		"/>
		<g>
			<path style="fill:#A3A6A8;" d="M803.426,470.115c0,2.8-2.269,5.069-5.068,5.069h-10.434c-2.798,0-5.069-2.269-5.069-5.069l0,0
				c0-2.798,2.27-5.066,5.069-5.066h10.434C801.157,465.049,803.426,467.317,803.426,470.115L803.426,470.115z"/>
			<g>
				<path style="fill:#D6D6D6;" d="M807.326,473.466c-1.909,1.934-5.024,1.954-6.959,0.044c-1.933-1.91-1.954-5.026-0.044-6.96
					c1.909-1.934,5.025-1.954,6.959-0.045C809.217,468.415,809.237,471.532,807.326,473.466z"/>
				<g>
					<path style="fill:#D6D6D6;" d="M815.929,462.554c1.311-1.328,1.295-3.466-0.031-4.775c-1.328-1.31-3.465-1.297-4.776,0.029
						c-0.685,0.697-1.004,1.613-0.966,2.518l-6.044,6.122c-0.89,0.902-0.881,2.356,0.021,3.247c0.902,0.891,2.355,0.882,3.246-0.02
						l6.045-6.123C814.329,463.579,815.242,463.25,815.929,462.554z"/>
					<path style="fill:#D6D6D6;" d="M791.72,477.463c-1.308,1.327-1.295,3.464,0.032,4.774c1.327,1.309,3.464,1.297,4.774-0.031
						c0.686-0.695,1.006-1.613,0.966-2.517l6.044-6.121c0.892-0.903,0.883-2.356-0.021-3.246c-0.901-0.891-2.355-0.883-3.245,0.021
						l-6.044,6.121C793.322,476.436,792.408,476.767,791.72,477.463z"/>
				</g>
				<g>
					<path style="fill:#D6D6D6;" d="M811.282,482.459c1.326,1.311,3.463,1.295,4.774-0.03c1.308-1.327,1.297-3.464-0.031-4.775
						c-0.697-0.686-1.613-1.006-2.517-0.967l-6.123-6.044c-0.901-0.891-2.355-0.881-3.247,0.02c-0.89,0.903-0.881,2.356,0.022,3.248
						l6.121,6.044C810.255,480.859,810.585,481.773,811.282,482.459z"/>
					<path style="fill:#D6D6D6;" d="M796.373,458.252c-1.327-1.31-3.464-1.295-4.773,0.03c-1.311,1.328-1.297,3.465,0.03,4.776
						c0.695,0.685,1.612,1.005,2.517,0.966l6.121,6.044c0.902,0.892,2.357,0.881,3.247-0.02c0.891-0.903,0.883-2.356-0.021-3.247
						l-6.123-6.046C797.399,459.852,797.068,458.94,796.373,458.252z"/>
				</g>
				<path style="fill:#C0434B;" d="M806.222,472.058c-1.221,1.237-3.215,1.249-4.452,0.029c-1.237-1.221-1.25-3.214-0.029-4.452
					c1.223-1.237,3.215-1.25,4.452-0.028C807.431,468.828,807.444,470.82,806.222,472.058z"/>
			</g>
		</g>
		<polygon style="fill:#DDD3CA;" points="704.223,785.409 732.179,785.409 727.325,793.499 709.065,793.499 		"/>
		<polygon style="fill:#FFF2E3;" points="704.223,801.565 732.179,801.565 727.325,793.499 709.065,793.499 		"/>
		<polygon style="fill:#DDD3CA;" points="704.223,801.565 732.179,801.565 727.325,809.668 709.065,809.668 		"/>
		<polygon style="fill:#FFF2E3;" points="704.223,817.734 732.179,817.734 727.325,809.668 709.065,809.668 		"/>
		<polygon style="fill:#DDD3CA;" points="704.223,817.734 732.179,817.734 727.325,825.831 709.065,825.831 		"/>
		<polygon style="fill:#FFF2E3;" points="704.223,833.903 732.179,833.903 727.325,825.831 709.065,825.831 		"/>
		<polygon style="fill:#DDD3CA;" points="704.223,833.903 732.179,833.903 727.325,842 709.065,842 		"/>
		<polygon style="fill:#FFF2E3;" points="755.989,695.471 760.642,725.009 766.383,719.748 766.383,699.616 		"/>
		<polygon style="fill:#DDD3CA;" points="747.368,702.782 753.757,722.353 760.642,725.009 755.989,695.471 755.941,695.471 
			747.414,702.782 		"/>
		<polygon style="fill:#FFF2E3;" points="736.608,702.782 750.072,729.249 753.757,722.399 753.757,722.353 747.368,702.782 		"/>
		<polygon style="fill:#DDD3CA;" points="730.869,712.29 743.175,729.249 750.072,729.249 736.608,702.782 		"/>
		<polygon style="fill:#FFF2E3;" points="720.581,715.36 741.687,736.466 743.175,729.249 730.869,712.29 		"/>
		<polygon style="fill:#DDD3CA;" points="718.113,726.079 718.113,726.13 734.977,738.385 735.025,738.385 741.687,736.518 
			741.687,736.466 720.581,715.36 720.535,715.36 		"/>
		<polygon style="fill:#FFF2E3;" points="709.762,732.321 709.762,732.368 735.298,745.371 734.977,738.385 718.113,726.13 		"/>
		<polygon style="fill:#DDD3CA;" points="709.762,732.368 711.345,743.315 729.758,749.281 735.298,745.371 		"/>
		<polygon style="fill:#FFF2E3;" points="704.223,751.336 732.179,755.764 729.758,749.281 711.345,743.315 		"/>
		<polygon style="fill:#DDD3CA;" points="704.223,751.336 709.113,761.161 727.325,761.161 732.179,755.764 		"/>
		<path style="opacity:0.4;fill:#C9BDAD;" d="M794.894,749.635v43.475c0,13.364,10.853,24.276,24.269,24.276
			c0.414,0,0.758,0,1.17-0.059c-7.996-5.078-13.253-13.948-13.253-24.1v-30.695l36.366-4.659v-8.238H794.894z"/>
		<g>
			<g>
				<g>
					<path style="fill:#BBBDBF;" d="M809.565,427.005c0.238-6.478-2.164-17.787-10.532-15.137
						c-5.484,1.738-6.401,10.266-7.188,14.429c-2.912,15.395,1.029,31.708,5.397,45.868h-29.692
						c-0.437-20.393-2.773-46.344,9.167-61.962c16.577-21.683,41.467-9.379,41.059,15.472
						C814.675,425.981,812.808,425.994,809.565,427.005z"/>
				</g>
				<g>
					<path style="fill:#A3A6A8;" d="M789.824,472.164h7.416c-4.369-14.158-8.307-30.473-5.399-45.863
						c0.71-3.736,1.518-10.958,5.622-13.671c-1.502-1.12-3.423-1.524-5.852-0.759c-5.482,1.74-6.401,10.263-7.186,14.43
						C781.51,441.69,785.454,458.006,789.824,472.164z"/>
				</g>
				<path style="fill:#BBBDBF;" d="M806.454,424.797c0,1.785,1.448,3.233,3.234,3.233h8.236c1.786,0,3.235-1.448,3.235-3.233l0,0
					c0-1.788-1.448-3.236-3.235-3.236h-8.236C807.902,421.561,806.454,423.009,806.454,424.797L806.454,424.797z"/>
			</g>
			<path style="fill:#D6D6D6;" d="M793.467,403.52c0,0,0.414,0.016,1.097,0.042c0.355,0.006,0.779,0.015,1.256,0.024
				c0.494,0.059,1.042,0.122,1.628,0.191c0.297,0.015,0.604,0.084,0.919,0.162c0.318,0.069,0.645,0.141,0.976,0.212
				c0.339,0.049,0.667,0.194,1.011,0.305c0.34,0.122,0.695,0.219,1.045,0.355c1.388,0.591,2.797,1.398,4.146,2.46
				c2.665,2.167,4.541,4.894,5.717,7.003c0.58,1.07,0.995,1.951,1.272,2.606c0.258,0.633,0.415,1.017,0.415,1.017
				s0.005-0.415,0.012-1.098c-0.018-0.699-0.116-1.761-0.396-3.018c-0.315-1.247-0.769-2.751-1.635-4.268
				c-0.851-1.514-2.012-3.12-3.641-4.409c-1.623-1.291-3.471-2.12-5.202-2.539c-0.436-0.094-0.87-0.139-1.284-0.199
				c-0.417-0.05-0.815-0.128-1.208-0.1c-0.384,0.008-0.759,0.017-1.125,0.025c-0.358,0.005-0.699,0.024-1.021,0.095
				c-0.645,0.112-1.219,0.223-1.715,0.324c-0.49,0.152-0.903,0.303-1.239,0.422C793.824,403.374,793.467,403.52,793.467,403.52z"/>
		</g>
		<g>
			<path style="fill:#A3A6A8;" d="M752.628,468.03c0,2.799,2.268,5.068,5.066,5.068h10.436c2.799,0,5.068-2.27,5.068-5.068l0,0
				c0-2.799-2.269-5.068-5.068-5.068h-10.436C754.896,462.962,752.628,465.23,752.628,468.03L752.628,468.03z"/>
			<g>
				<path style="fill:#D6D6D6;" d="M748.726,471.379c1.909,1.934,5.025,1.954,6.959,0.045c1.935-1.909,1.954-5.026,0.045-6.96
					c-1.91-1.934-5.027-1.954-6.961-0.045C746.837,466.329,746.817,469.445,748.726,471.379z"/>
				<g>
					<path style="fill:#D6D6D6;" d="M740.125,460.467c-1.31-1.327-1.297-3.465,0.031-4.775c1.326-1.309,3.464-1.296,4.773,0.03
						c0.688,0.696,1.007,1.612,0.968,2.517l6.043,6.122c0.891,0.902,0.881,2.356-0.02,3.245c-0.903,0.892-2.357,0.883-3.247-0.019
						l-6.044-6.122C741.724,461.493,740.811,461.163,740.125,460.467z"/>
					<path style="fill:#D6D6D6;" d="M764.33,475.375c1.311,1.328,1.297,3.465-0.029,4.775c-1.328,1.309-3.465,1.296-4.774-0.031
						c-0.686-0.695-1.005-1.613-0.968-2.517l-6.042-6.122c-0.892-0.902-0.883-2.356,0.02-3.246c0.902-0.891,2.355-0.883,3.247,0.021
						l6.044,6.122C762.732,474.349,763.645,474.68,764.33,475.375z"/>
				</g>
				<g>
					<path style="fill:#D6D6D6;" d="M744.771,480.373c-1.326,1.31-3.464,1.296-4.775-0.031c-1.309-1.326-1.296-3.463,0.032-4.774
						c0.695-0.686,1.612-1.007,2.516-0.967l6.123-6.045c0.902-0.89,2.355-0.881,3.246,0.022c0.891,0.902,0.881,2.356-0.02,3.247
						l-6.123,6.044C745.797,478.773,745.466,479.686,744.771,480.373z"/>
					<path style="fill:#D6D6D6;" d="M759.68,456.165c1.327-1.309,3.464-1.294,4.774,0.031c1.31,1.328,1.296,3.465-0.031,4.775
						c-0.696,0.686-1.613,1.006-2.516,0.967l-6.123,6.043c-0.904,0.893-2.357,0.882-3.247-0.019
						c-0.89-0.904-0.881-2.356,0.021-3.247l6.123-6.045C758.653,457.765,758.984,456.853,759.68,456.165z"/>
				</g>
				<path style="fill:#3C9DBF;" d="M749.831,469.971c1.222,1.236,3.214,1.25,4.452,0.029c1.238-1.222,1.248-3.214,0.028-4.451
					c-1.22-1.237-3.213-1.251-4.451-0.028C748.623,466.741,748.609,468.734,749.831,469.971z"/>
			</g>
		</g>
		<rect x="663.085" y="489.327" style="opacity:0.5;fill:#DFEBEE;" width="312.179" height="15.306"/>
		<g>
			<path style="fill:#DFEBEE;" d="M650.145,482.37c0,5.761,4.676,10.437,10.436,10.437h313.779c0.306,0,0.605-0.014,0.904-0.042
				c5.337-0.46,9.532-4.94,9.532-10.395c0-2.88-1.169-5.489-3.061-7.374c-1.886-1.893-4.495-3.061-7.375-3.061H660.581
				C654.821,471.935,650.145,476.61,650.145,482.37z"/>
			<path style="fill:#F0FCFF;" d="M725.285,477.5c0,1.537,1.246,2.783,2.783,2.783h240.726c1.536,0,2.783-1.246,2.783-2.783l0,0
				c0-1.537-1.247-2.783-2.783-2.783H728.068C726.531,474.717,725.285,475.963,725.285,477.5L725.285,477.5z"/>
		</g>
		<path style="opacity:0.5;fill:#DFEBEE;" d="M650.145,482.37c0,5.761,4.676,10.437,10.436,10.437h2.504v30.354
			c0,36.019,29.208,65.233,65.233,65.233h73.63c-1.204-0.551-2.407-1.107-3.611-1.663c-29.846-13.797-54.198-35.935-64.196-67.173
			c-1.594-4.969-2.636-9.936-3.374-14.925c-0.578-3.923-0.968-7.862-1.274-11.827c-0.098-1.155-13.254-5.567-13.254-10.437
			c0-8.378,11.753-10.025,11.717-10.435h-67.376C654.821,471.935,650.145,476.61,650.145,482.37z"/>
		<g>
			<path style="fill:#E2CBAA;" d="M784.832,742.809c0,5.251,4.257,9.509,9.508,9.509h49.735c5.251,0,9.509-4.258,9.509-9.509l0,0
				c0-5.251-4.258-9.508-9.509-9.508h-49.735C789.089,733.301,784.832,737.557,784.832,742.809L784.832,742.809z"/>
			<path style="fill:#EFD8B9;" d="M797.998,739.152c0,1.078,0.873,1.951,1.951,1.951h46.809c1.078,0,1.952-0.874,1.952-1.951l0,0
				c0-1.076-0.873-1.95-1.952-1.95h-46.809C798.87,737.201,797.998,738.076,797.998,739.152L797.998,739.152z"/>
		</g>
		<g>
			<path style="fill:#80C0FF;" d="M813.084,620.893h26.674c6.007,17.665,20.93,71.563,6.005,70.797
				c-16.923-0.867-1.487-28.537-7.271-36.354c-1.639,2.666,2.437,15.995-0.765,15.689c-7.774-0.743-0.182-19.994-2.859-22.635
				c-5.464,7.173-4.158,20.391-5.143,29.38c-0.51,4.643,0.263,11.559-6.024,11.234c-6.321-0.328-6.321-8.617-5.838-12.956
				c0.988-8.88,9.003-15.89,9.279-24.969c0.17-5.559-2.777-7.12-3.655-11.842c-0.805-4.323,2.892-9.677-2.203-11.274
				c-2.504,2.696-5.852,23.391-9.636,12.783c-1.471-4.12,2.402-8.176,2.577-12.053C814.341,626.098,813.372,623.096,813.084,620.893
				z"/>
			<path style="fill:#80C0FF;" d="M837.78,731.114c-12.667-4.897-4.213-25.793-2.603-34.498c0.517-2.799,1.326-8.183,1.842-14.103
				C837.235,698.796,844.953,718.384,837.78,731.114z"/>
			<path style="fill:#80C0FF;" d="M822.474,755.989c-12.667-4.897-4.214-25.792-2.603-34.498c0.518-2.799,1.326-8.183,1.842-14.102
				C821.927,723.671,829.646,743.259,822.474,755.989z"/>
			<path style="fill:#AEDAFF;" d="M825.767,687.519c-5.154-2.451-0.954-10.942-0.005-14.541c0.305-1.156,0.814-3.387,1.216-5.852
				C826.557,673.957,829.174,682.41,825.767,687.519z"/>
			<path style="fill:#AEDAFF;" d="M841.354,643.064c-5.643-0.856-4.075-10.2-4.206-13.919c-0.043-1.195-0.2-3.478-0.527-5.953
				C838.19,629.853,843.139,637.188,841.354,643.064z"/>
			<path style="fill:#AEDAFF;" d="M819.644,745.688c-5.154-2.451-0.953-10.943-0.004-14.542c0.305-1.156,0.813-3.387,1.216-5.851
				C820.433,732.124,823.052,740.578,819.644,745.688z"/>
			<path style="fill:#AEDAFF;" d="M835.717,718.135c-5.154-2.452-0.953-10.943-0.005-14.542c0.306-1.156,0.813-3.388,1.216-5.851
				C836.506,704.573,839.123,713.025,835.717,718.135z"/>
			<path style="fill:#AEDAFF;" d="M847.964,687.519c-5.156-2.451-0.954-10.942-0.006-14.541c0.304-1.156,0.814-3.387,1.216-5.852
				C848.752,673.957,851.37,682.41,847.964,687.519z"/>
		</g>
	</g>
	<path style="fill:#F0FCFF;" d="M964.996,509.206c0,0,12.916,65.436-54.242,69.74C928.835,566.032,965.888,534.867,964.996,509.206z
		"/>
</g>
<g>
	<g>
		<path style="fill:#C0434B;" d="M592.894,154.693c14.556,0,25.495,7.504,25.495,22.964c0,15.369-10.939,23.958-25.495,23.958
			h-10.217v27.665h-16.996v-74.587H592.894z M587.47,188.054c6.69,0,13.019-2.26,13.019-9.854c0-7.685-6.328-9.945-13.019-9.945
			h-4.792v19.799H587.47z"/>
		<path style="fill:#C0434B;" d="M642.887,214.363h25.677v14.918h-42.673v-74.587h16.996V214.363z"/>
		<path style="fill:#C0434B;" d="M734.286,202.79c0,18.443-10.126,27.846-29.111,27.846c-18.985,0-29.111-9.402-29.111-27.846
			v-48.097h16.997v43.125c0,12.476,3.797,16.092,12.114,16.092s12.115-3.616,12.115-16.092v-43.125h16.996V202.79z"/>
		<path style="fill:#C0434B;" d="M802.36,185.071h-0.451l-15.279,43.757h-10.126l-15.279-43.757h-0.452l-3.525,44.21H740.25
			l6.69-74.587h18.082l16.544,43.034l16.545-43.034h18.082l6.69,74.587h-16.997L802.36,185.071z"/>
		<path style="fill:#C0434B;" d="M852.896,154.693c12.838,0,22.964,4.791,22.964,18.986c0,6.871-2.984,12.748-9.313,16.002
			c9.313,1.627,15.912,6.78,15.912,18.805c0,12.295-8.95,20.794-24.41,20.794h-28.298v-74.587H852.896z M848.104,183.895
			c7.323,0,11.301-2.26,11.301-8.498c0-5.334-3.888-7.594-11.301-7.594h-1.357v16.093H848.104z M852.082,216.171
			c8.047,0,12.477-2.441,12.477-8.317c0-6.871-4.43-9.312-12.477-9.312h-5.334v17.629H852.082z"/>
		<path style="fill:#C0434B;" d="M906.956,229.28H889.96v-74.587h16.996V229.28z"/>
		<path style="fill:#C0434B;" d="M934.801,229.28h-16.996v-74.587h16.996l29.654,46.289h0.181v-46.289h16.997v74.587h-16.997
			l-29.653-46.289h-0.182V229.28z"/>
		<path style="fill:#C0434B;" d="M1059.923,203.695c-4.068,18.895-19.8,26.941-34.445,26.941c-20.071,0-36.345-17.268-36.345-38.604
			c0-21.427,15.37-38.695,36.345-38.695c13.109,0,22.24,4.882,28.75,12.748l-11.121,12.205c-4.339-6.961-10.035-9.583-16.635-9.583
			c-10.487,0-18.985,10.397-18.985,23.326c0,12.657,8.498,22.963,18.985,22.963c8.137,0,16.184-5.244,16.184-14.375h-17.178v-13.109
			h34.445V203.695z"/>
	</g>
</g>
<g>
	<g>
		<path style="fill:#247DBA;" d="M723.967,279.422c4.928,0,8.624,2.772,8.624,6.622c0,2.156-1.31,3.465-3.312,3.465
			c-4.696,0-3.233-6.776-7.083-6.776c-2.233,0-4.004,2.233-4.004,5.082c0,6.853,9.701,10.933,9.701,21.25
			c0,6.93-6.545,12.705-13.551,12.705c-6.083,0-10.087-2.926-10.087-7.238c0-2.926,1.54-4.773,3.85-4.773
			c2.156,0,3.465,1.54,3.773,4.543c0.308,3.311,0.847,4.081,3.156,4.081c3.696,0,6.006-2.387,6.006-6.237
			c0-8.315-9.856-11.626-9.856-20.943C711.185,284.427,716.575,279.422,723.967,279.422z"/>
		<path style="fill:#247DBA;" d="M763.159,310.76c-4.389,7.237-10.087,11.01-16.478,11.01c-7.006,0-11.01-4.62-11.01-12.55
			c0-14.168,12.936-29.797,24.639-29.797c4.928,0,8.393,2.772,8.393,6.699c0,7.16-11.473,15.707-25.178,18.787
			c-0.232,1.463-0.309,2.849-0.309,4.235c0,5.467,2.079,8.393,5.929,8.393c3.773,0,8.085-3.157,11.55-8.393L763.159,310.76z
			 M744.295,301.443c9.855-2.695,17.17-9.008,17.17-15.168c0-2.156-0.924-3.234-2.694-3.234
			C753.381,283.041,746.913,292.05,744.295,301.443z"/>
		<path style="fill:#247DBA;" d="M771.322,290.895c2.309-5.159,10.009-11.472,14.09-11.472c2.464,0,3.542,1.771,3.542,5.852
			c0,1.617-0.154,3.08-0.539,5.082l0.232,0.231c2.54-6.005,9.47-11.934,14.09-11.934c2.926,0,5.235,2.156,5.235,4.928
			c0,2.695-1.925,4.62-4.542,4.62c-3.234,0-3.542-2.849-5.391-2.849c-3.927,0-10.702,11.087-15.245,25.023L779.329,321h-7.16
			l5.005-15.938c3.927-12.243,4.851-15.784,4.851-17.94c0-1.155-0.385-1.694-1.155-1.694c-2.078,0-6.236,3.542-7.545,6.468
			L771.322,290.895z"/>
		<path style="fill:#247DBA;" d="M839.773,283.811c0-2.849,1.386-4.389,4.003-4.389c3.157,0,4.466,2.156,4.466,7.314
			c0,16.323-13.012,35.033-24.33,35.033c-5.621,0-9.778-4.62-9.778-10.856c0-5.852,3.311-14.168,9.162-22.56l-0.154-0.231
			c-5.62,0-6.853-4.003-9.008-4.003c-0.848,0-1.31,0.539-1.31,1.309c0,1.925,2.695,2.618,2.695,5.082
			c0,1.848-1.617,3.157-3.85,3.157c-2.618,0-4.158-1.771-4.158-4.697c0-5.081,4.466-9.547,9.548-9.547
			c4.08,0,5.313,3.311,8.546,3.311c1.078,0,1.771-0.308,2.618-1.155c2.156-1.925,2.464-2.156,3.695-2.156
			c1.001,0,1.54,0.462,1.54,1.309c0,0.847-0.076,0.924-3.156,4.62c-4.697,5.698-8.085,14.937-8.085,21.944
			c0,5.466,2.079,9.162,5.082,9.162c5.697,0,14.244-13.782,14.244-22.944C841.543,289.354,839.773,286.968,839.773,283.811z"/>
		<path style="fill:#247DBA;" d="M860.64,295.591c1.463-4.004,2.001-6.391,2.001-7.776c0-1.386-0.538-1.771-1.077-1.771
			c-2.156,0-5.852,4.928-6.699,6.544l-2.233-1.386c2.387-4.62,9.547-11.78,14.86-11.78c2.54,0,3.85,1.309,3.85,5.159
			c0,3.003-2.002,7.854-4.851,15.707l-2.85,7.776c-0.385,1.078-1.616,4.543-1.616,6.006c0,0.924,0.462,1.771,1.616,1.771
			c3.003,0,7.084-5.929,8.239-8.008l2.31,1.309c-2.464,5.005-8.623,12.627-15.399,12.627c-3.003,0-4.466-1.463-4.466-5.005
			c0-2.926,1.001-6.083,2.85-11.318L860.64,295.591z M867.184,262.098c0-2.772,2.079-5.005,4.774-5.005
			c2.849,0,4.928,2.31,4.928,4.928c0,2.695-2.233,4.774-4.928,4.774C869.417,266.795,867.184,264.87,867.184,262.098z"/>
		<path style="fill:#247DBA;" d="M905.761,308.603c-4.235,8.47-10.164,13.167-16.632,13.167c-6.621,0-11.01-5.005-11.01-12.55
			c0-13.706,12.704-29.797,23.561-29.797c4.851,0,8.47,3.003,8.47,7.006c0,2.541-1.694,4.312-4.004,4.312
			c-2.31,0-4.004-1.694-4.004-3.85c0-1.309,0.616-2.079,0.616-2.771c0-0.693-0.616-1.078-1.848-1.078
			c-6.854,0-14.707,14.013-14.707,26.256c0,4.928,2.002,7.93,5.39,7.93c3.619,0,8.393-4.312,11.473-10.163L905.761,308.603z"/>
		<path style="fill:#247DBA;" d="M939.563,310.76c-4.389,7.237-10.086,11.01-16.477,11.01c-7.006,0-11.01-4.62-11.01-12.55
			c0-14.168,12.935-29.797,24.639-29.797c4.928,0,8.392,2.772,8.392,6.699c0,7.16-11.473,15.707-25.178,18.787
			c-0.231,1.463-0.308,2.849-0.308,4.235c0,5.467,2.078,8.393,5.928,8.393c3.773,0,8.085-3.157,11.55-8.393L939.563,310.76z
			 M920.698,301.443c9.856-2.695,17.17-9.008,17.17-15.168c0-2.156-0.924-3.234-2.694-3.234
			C929.784,283.041,923.316,292.05,920.698,301.443z"/>
	</g>
</g>
</svg>
